<?xml version="1.0" encoding="UTF-8" standalone="no"?>
<!DOCTYPE svg PUBLIC "-//W3C//DTD SVG 20010904//EN"
              "http://www.w3.org/TR/2001/REC-SVG-20010904/DTD/svg10.dtd">

<svg xmlns="http://www.w3.org/2000/svg"
     width="15in" height="15in"
     viewBox="0 0 1080 1080">
  <path id="Selection"
        fill="#7B46A5" stroke="black" stroke-width="1"
        d="M 527.00,215.51
           C 530.33,214.99 531.68,215.01 535.00,215.00
             553.21,214.97 563.42,215.43 579.00,226.75
             579.00,226.75 606.34,253.00 606.34,253.00
             606.34,253.00 656.42,303.14 656.42,303.14
             656.42,303.14 729.09,376.04 729.09,376.04
             736.18,383.32 751.68,397.63 756.78,405.00
             766.33,418.80 768.19,430.69 768.00,447.00
             767.73,470.06 755.34,483.66 740.00,499.00
             740.00,499.00 721.00,518.00 721.00,518.00
             721.00,518.00 618.00,621.00 618.00,621.00
             618.00,621.00 578.00,659.96 578.00,659.96
             570.05,665.58 556.80,670.88 547.00,671.00
             547.00,671.00 533.00,671.00 533.00,671.00
             527.18,670.93 526.40,670.37 521.00,668.72
             502.81,663.13 496.07,655.07 483.00,642.00
             483.00,642.00 422.00,581.00 422.00,581.00
             422.00,581.00 355.00,514.00 355.00,514.00
             342.34,501.34 324.60,486.22 317.35,470.00
             313.00,460.28 311.88,449.51 312.00,439.00
             312.35,409.70 335.08,391.92 354.00,373.00
             354.00,373.00 462.00,265.00 462.00,265.00
             462.00,265.00 484.00,243.00 484.00,243.00
             499.61,227.39 504.96,220.96 527.00,215.51 Z
           M 556.00,236.00
           C 551.75,234.87 545.36,233.57 541.00,233.57
             516.01,233.54 503.17,250.83 487.00,267.00
             487.00,267.00 430.00,324.00 430.00,324.00
             430.00,324.00 407.49,347.00 407.49,347.00
             407.49,347.00 375.09,379.25 375.09,379.25
             370.70,383.75 363.60,389.16 362.00,395.00
             371.85,396.75 367.77,397.02 379.00,397.00
             398.06,396.97 406.37,387.63 419.00,375.00
             419.00,375.00 437.00,357.00 437.00,357.00
             437.00,357.00 512.00,282.00 512.00,282.00
             512.00,282.00 541.00,253.00 541.00,253.00
             545.88,248.12 553.10,242.13 556.00,236.00 Z
           M 590.00,264.00
           C 586.31,268.34 586.00,274.48 586.00,280.00
             586.00,295.54 591.25,305.12 602.00,316.00
             602.00,316.00 704.00,418.00 704.00,418.00
             704.00,418.00 731.99,446.00 731.99,446.00
             736.11,450.17 741.47,457.19 747.00,459.00
             748.28,449.90 749.05,452.73 749.00,442.00
             748.91,421.40 737.53,411.53 724.00,398.00
             724.00,398.00 703.00,377.00 703.00,377.00
             703.00,377.00 590.00,264.00 590.00,264.00 Z
           M 506.04,316.51
           C 499.87,319.19 488.26,332.64 482.95,337.95
             482.95,337.95 434.00,387.00 434.00,387.00
             434.00,387.00 421.00,399.71 421.00,399.71
             418.69,401.73 414.75,404.35 413.60,407.17
             412.88,408.94 413.00,412.05 413.00,414.00
             413.00,414.00 413.00,470.00 413.00,470.00
             413.02,481.22 418.28,483.28 426.00,491.00
             426.00,491.00 459.00,524.00 459.00,524.00
             459.00,524.00 492.96,557.99 492.96,557.99
             498.56,563.73 500.70,569.84 509.00,570.00
             509.00,570.00 568.00,570.00 568.00,570.00
             569.90,570.00 572.97,570.12 574.71,569.48
             577.52,568.45 587.80,557.48 590.50,554.72
             590.50,554.72 633.00,512.00 633.00,512.00
             633.00,512.00 654.82,490.32 654.82,490.32
             665.39,480.31 666.98,482.55 667.00,472.00
             667.00,472.00 667.00,416.00 667.00,416.00
             666.98,404.69 663.70,404.50 655.98,396.58
             655.98,396.58 631.58,372.28 631.58,372.28
             631.58,372.28 590.34,330.98 590.34,330.98
             587.12,327.77 579.19,317.81 575.91,316.58
             574.04,315.88 571.03,316.00 569.00,316.00
             569.00,316.00 529.00,316.00 529.00,316.00
             522.99,316.00 511.39,315.55 506.04,316.51 Z
           M 335.00,426.00
           C 332.54,430.03 332.40,432.45 331.85,437.00
             330.14,451.15 333.65,463.73 343.29,474.49
             343.29,474.49 377.58,508.86 377.58,508.86
             377.58,508.86 448.66,580.02 448.66,580.02
             448.66,580.02 476.58,608.01 476.58,608.01
             481.06,612.54 485.73,619.13 492.00,621.00
             495.62,607.34 494.91,592.06 486.90,580.00
             482.99,574.11 466.44,558.63 460.32,552.18
             460.32,552.18 422.91,514.68 422.91,514.68
             422.91,514.68 335.00,426.00 335.00,426.00 Z
           M 719.00,491.00
           C 719.00,491.00 711.00,489.32 711.00,489.32
             703.82,488.16 692.86,489.07 686.00,491.55
             676.95,494.81 670.61,501.39 664.00,508.00
             664.00,508.00 640.00,532.00 640.00,532.00
             640.00,532.00 569.00,603.00 569.00,603.00
             569.00,603.00 539.00,633.00 539.00,633.00
             534.12,637.88 526.90,643.87 524.00,650.00
             533.10,651.28 530.27,652.05 541.00,652.00
             560.82,651.91 569.91,642.09 583.00,629.00
             583.00,629.00 603.00,609.00 603.00,609.00
             603.00,609.00 674.00,538.00 674.00,538.00
             674.00,538.00 704.00,508.00 704.00,508.00
             708.88,503.12 716.10,497.13 719.00,491.00 Z" />
</svg>
