<?xml version="1.0" encoding="UTF-8" standalone="no"?>
<!DOCTYPE svg PUBLIC "-//W3C//DTD SVG 20010904//EN"
              "http://www.w3.org/TR/2001/REC-SVG-20010904/DTD/svg10.dtd">

<svg xmlns="http://www.w3.org/2000/svg"
     width="15in" height="15in"
     viewBox="0 0 1080 1080">
  <path id="Selection #2"
        fill="none" stroke="black" stroke-width="1"
        d="M 388.00,869.22
           C 394.66,867.89 400.45,873.37 403.09,869.22
             404.25,867.72 402.24,866.33 400.92,865.65
             397.81,864.05 390.54,864.07 389.36,857.98
             387.47,848.28 404.78,844.62 410.00,855.00
             403.33,856.42 397.46,852.36 396.62,856.17
             396.10,858.55 400.47,859.41 402.00,859.79
             406.66,860.96 410.79,862.17 410.79,868.00
             410.79,878.33 391.64,881.06 388.00,869.22 Z
           M 558.00,874.00
           C 554.30,875.73 552.22,876.86 548.00,876.95
             528.33,877.35 529.45,847.43 549.00,849.11
             553.33,849.48 555.21,850.85 558.00,854.00
             551.20,858.34 551.62,854.08 546.02,855.45
             539.30,857.09 537.37,866.40 544.05,870.01
             547.91,872.04 551.56,869.65 553.94,870.01
             556.48,870.48 556.97,872.03 558.00,874.00 Z
           M 568.00,849.57
           C 573.39,848.61 577.76,848.92 581.78,853.13
             588.81,860.50 586.31,873.75 576.00,876.44
             557.94,881.17 550.81,856.32 568.00,849.57 Z
           M 311.00,850.00
           C 311.00,850.00 317.00,850.00 317.00,850.00
             317.00,850.00 317.00,871.00 317.00,871.00
             317.00,871.00 330.00,871.00 330.00,871.00
             330.00,871.00 330.00,876.00 330.00,876.00
             330.00,876.00 311.00,876.00 311.00,876.00
             311.00,876.00 311.00,850.00 311.00,850.00 Z
           M 333.00,850.00
           C 333.00,850.00 354.00,850.00 354.00,850.00
             354.00,850.00 354.00,855.00 354.00,855.00
             354.00,855.00 339.00,855.00 339.00,855.00
             339.00,855.00 339.00,861.00 339.00,861.00
             339.00,861.00 353.00,861.00 353.00,861.00
             353.00,861.00 353.00,866.00 353.00,866.00
             353.00,866.00 339.00,866.00 339.00,866.00
             339.00,866.00 339.00,871.00 339.00,871.00
             339.00,871.00 354.00,871.00 354.00,871.00
             354.00,871.00 354.00,876.00 354.00,876.00
             354.00,876.00 333.00,876.00 333.00,876.00
             333.00,876.00 333.00,850.00 333.00,850.00 Z
           M 357.00,850.00
           C 357.00,850.00 379.00,850.00 379.00,850.00
             379.00,850.00 379.00,855.00 379.00,855.00
             379.00,855.00 371.00,855.00 371.00,855.00
             371.00,855.00 371.00,876.00 371.00,876.00
             371.00,876.00 365.00,876.00 365.00,876.00
             365.00,876.00 365.00,855.00 365.00,855.00
             365.00,855.00 357.00,855.00 357.00,855.00
             357.00,855.00 357.00,850.00 357.00,850.00 Z
           M 381.00,850.00
           C 381.00,850.00 386.00,850.00 386.00,850.00
             386.00,850.00 386.00,860.00 386.00,860.00
             386.00,860.00 381.00,860.00 381.00,860.00
             381.00,860.00 381.00,850.00 381.00,850.00 Z
           M 420.00,850.00
           C 428.48,850.11 430.17,852.56 434.00,860.00
             439.97,852.95 439.40,850.12 449.00,850.00
             449.00,850.00 449.00,876.00 449.00,876.00
             449.00,876.00 443.00,876.00 443.00,876.00
             443.00,876.00 442.00,859.00 442.00,859.00
             442.00,859.00 436.00,869.00 436.00,869.00
             436.00,869.00 433.00,869.00 433.00,869.00
             433.00,869.00 426.00,859.00 426.00,859.00
             426.00,859.00 426.00,876.00 426.00,876.00
             426.00,876.00 420.00,876.00 420.00,876.00
             420.00,876.00 420.00,850.00 420.00,850.00 Z
           M 450.00,876.00
           C 451.34,871.02 456.36,859.82 458.78,855.02
             460.27,852.09 462.00,849.35 465.80,850.31
             468.81,851.07 469.90,854.47 471.00,857.00
             471.00,857.00 479.00,876.00 479.00,876.00
             468.42,875.63 473.41,870.21 463.02,871.06
             455.64,871.66 459.86,875.65 450.00,876.00 Z
           M 480.00,850.00
           C 480.00,850.00 486.00,850.00 486.00,850.00
             486.00,850.00 486.00,859.00 486.00,859.00
             494.33,850.60 492.94,850.04 502.00,850.00
             502.00,850.00 491.00,863.00 491.00,863.00
             491.00,863.00 503.00,876.00 503.00,876.00
             492.89,875.96 494.42,874.61 486.00,866.00
             486.00,866.00 486.00,876.00 486.00,876.00
             486.00,876.00 480.00,876.00 480.00,876.00
             480.00,876.00 480.00,850.00 480.00,850.00 Z
           M 504.00,850.00
           C 504.00,850.00 525.00,850.00 525.00,850.00
             525.00,850.00 525.00,855.00 525.00,855.00
             525.00,855.00 510.00,855.00 510.00,855.00
             510.00,855.00 510.00,861.00 510.00,861.00
             510.00,861.00 524.00,861.00 524.00,861.00
             524.00,861.00 524.00,866.00 524.00,866.00
             524.00,866.00 510.00,866.00 510.00,866.00
             510.00,866.00 510.00,871.00 510.00,871.00
             510.00,871.00 525.00,871.00 525.00,871.00
             525.00,871.00 525.00,876.00 525.00,876.00
             525.00,876.00 504.00,876.00 504.00,876.00
             504.00,876.00 504.00,850.00 504.00,850.00 Z
           M 588.00,850.00
           C 596.48,850.11 598.17,852.56 602.00,860.00
             607.97,852.95 607.40,850.12 617.00,850.00
             617.00,850.00 617.00,876.00 617.00,876.00
             617.00,876.00 611.00,876.00 611.00,876.00
             611.00,876.00 610.00,859.00 610.00,859.00
             610.00,859.00 604.00,869.00 604.00,869.00
             604.00,869.00 601.00,869.00 601.00,869.00
             601.00,869.00 594.00,859.00 594.00,859.00
             594.00,859.00 594.00,876.00 594.00,876.00
             594.00,876.00 588.00,876.00 588.00,876.00
             588.00,876.00 588.00,850.00 588.00,850.00 Z
           M 620.00,850.00
           C 628.48,850.11 630.17,852.56 634.00,860.00
             639.97,852.95 639.40,850.12 649.00,850.00
             649.00,850.00 649.00,876.00 649.00,876.00
             649.00,876.00 643.00,876.00 643.00,876.00
             643.00,876.00 642.00,859.00 642.00,859.00
             642.00,859.00 636.00,869.00 636.00,869.00
             636.00,869.00 633.00,869.00 633.00,869.00
             633.00,869.00 626.00,859.00 626.00,859.00
             626.00,859.00 626.00,876.00 626.00,876.00
             626.00,876.00 620.00,876.00 620.00,876.00
             620.00,876.00 620.00,850.00 620.00,850.00 Z
           M 652.00,850.00
           C 652.00,850.00 658.00,850.00 658.00,850.00
             658.00,854.02 657.42,863.74 659.17,866.94
             661.12,870.49 665.35,871.97 668.26,868.57
             670.86,865.55 670.00,854.24 670.00,850.00
             670.00,850.00 676.00,850.00 676.00,850.00
             676.00,854.88 676.69,867.07 674.69,870.96
             670.81,878.48 658.81,878.87 654.28,871.81
             651.14,866.94 652.00,855.92 652.00,850.00 Z
           M 680.00,850.00
           C 688.01,850.65 691.66,857.89 696.00,864.00
             696.00,864.00 696.00,850.00 696.00,850.00
             696.00,850.00 702.00,850.00 702.00,850.00
             702.00,850.00 702.00,876.00 702.00,876.00
             694.47,874.78 690.23,866.75 686.00,861.00
             686.00,861.00 686.00,876.00 686.00,876.00
             686.00,876.00 680.00,876.00 680.00,876.00
             680.00,876.00 680.00,850.00 680.00,850.00 Z
           M 705.00,850.00
           C 705.00,850.00 711.00,850.00 711.00,850.00
             711.00,850.00 711.00,876.00 711.00,876.00
             711.00,876.00 705.00,876.00 705.00,876.00
             705.00,876.00 705.00,850.00 705.00,850.00 Z
           M 714.00,850.00
           C 714.00,850.00 736.00,850.00 736.00,850.00
             736.00,850.00 736.00,855.00 736.00,855.00
             736.00,855.00 728.00,855.00 728.00,855.00
             728.00,855.00 728.00,876.00 728.00,876.00
             728.00,876.00 722.00,876.00 722.00,876.00
             722.00,876.00 722.00,855.00 722.00,855.00
             722.00,855.00 714.00,855.00 714.00,855.00
             714.00,855.00 714.00,850.00 714.00,850.00 Z
           M 738.00,850.00
           C 746.04,850.10 746.75,851.72 750.00,859.00
             756.24,851.63 755.22,850.11 764.00,850.00
             764.00,850.00 754.84,865.00 754.84,865.00
             754.84,865.00 754.00,876.00 754.00,876.00
             754.00,876.00 748.00,876.00 748.00,876.00
             748.00,876.00 747.16,866.00 747.16,866.00
             747.16,866.00 738.00,850.00 738.00,850.00 Z
           M 569.04,855.60
           C 558.98,861.48 566.18,873.78 574.96,870.40
             580.59,868.23 581.43,860.19 576.77,856.60
             574.27,854.67 571.87,855.02 569.04,855.60 Z
           M 465.00,857.00
           C 465.00,857.00 461.00,866.00 461.00,866.00
             461.00,866.00 468.00,866.00 468.00,866.00
             468.00,866.00 465.00,857.00 465.00,857.00 Z" />
  <path id="Selection #1"
        fill="none" stroke="black" stroke-width="1"
        d="M 542.00,733.00
           C 542.00,733.00 557.00,733.00 557.00,733.00
             557.00,733.00 557.00,748.00 557.00,748.00
             557.00,748.00 589.00,748.00 589.00,748.00
             589.00,748.00 589.00,759.00 589.00,759.00
             589.00,759.00 557.00,759.00 557.00,759.00
             557.00,765.82 555.99,785.85 559.74,790.77
             563.00,795.06 569.76,794.85 572.69,789.89
             575.50,785.13 575.00,773.66 575.00,768.00
             575.00,768.00 589.00,768.00 589.00,768.00
             589.00,779.05 591.45,794.56 582.82,802.67
             574.53,810.46 555.20,810.20 547.33,801.82
             542.36,796.53 542.01,791.80 542.00,785.00
             542.00,785.00 542.00,733.00 542.00,733.00 Z
           M 369.00,790.14
           C 366.14,805.03 354.24,808.16 341.00,808.00
             336.18,807.94 332.23,807.30 328.00,804.78
             319.20,799.55 316.12,790.76 316.00,781.00
             315.89,771.66 315.36,763.88 321.53,756.02
             330.78,744.23 354.05,743.16 363.61,755.02
             369.93,762.85 370.00,771.57 370.00,781.00
             370.00,781.00 332.00,781.00 332.00,781.00
             332.43,788.63 337.31,796.81 346.09,794.86
             350.72,793.83 351.74,791.17 355.17,790.14
             355.17,790.14 369.00,790.14 369.00,790.14 Z
           M 478.00,790.14
           C 475.14,805.03 463.24,808.16 450.00,808.00
             445.18,807.94 441.23,807.30 437.00,804.78
             428.20,799.55 425.12,790.76 425.00,781.00
             424.89,771.66 424.36,763.88 430.53,756.02
             439.78,744.23 463.05,743.16 472.61,755.02
             478.93,762.85 479.00,771.57 479.00,781.00
             479.00,781.00 441.00,781.00 441.00,781.00
             441.43,788.63 446.31,796.81 455.09,794.86
             459.72,793.83 460.74,791.17 464.17,790.14
             464.17,790.14 478.00,790.14 478.00,790.14 Z
           M 499.00,754.00
           C 501.47,751.76 503.87,749.53 507.00,748.23
             510.43,746.79 514.35,746.96 518.00,747.00
             529.55,747.14 535.84,753.41 536.00,765.00
             536.00,765.00 536.00,806.00 536.00,806.00
             536.00,806.00 521.00,806.00 521.00,806.00
             521.00,806.00 521.00,779.00 521.00,779.00
             520.98,774.23 520.78,765.91 516.79,762.72
             511.93,758.85 503.51,761.23 500.72,768.00
             498.11,774.35 499.00,797.87 499.00,806.00
             499.00,806.00 484.00,806.00 484.00,806.00
             484.00,806.00 484.00,749.00 484.00,749.00
             487.11,749.00 496.03,748.18 497.98,750.60
             498.84,751.66 498.79,752.78 499.00,754.00 Z
           M 594.00,767.00
           C 595.06,761.37 595.66,756.35 600.11,752.22
             608.37,744.54 633.29,744.51 640.35,754.04
             643.62,758.45 643.97,762.76 644.00,768.00
             644.00,768.00 644.00,806.00 644.00,806.00
             639.54,806.00 631.03,807.87 629.00,803.00
             621.51,807.64 610.58,810.23 602.00,806.85
             592.04,802.94 590.23,787.68 595.65,780.02
             600.49,773.18 607.39,772.21 615.00,770.92
             618.68,770.29 625.11,769.63 626.92,765.87
             629.17,761.22 623.21,758.79 619.58,758.86
             614.15,758.95 611.43,762.14 610.00,767.00
             610.00,767.00 594.00,767.00 594.00,767.00 Z
           M 665.00,754.00
           C 671.22,742.23 691.45,746.14 698.61,755.02
             707.10,765.54 707.39,787.84 700.04,799.00
             691.83,811.44 674.18,811.02 665.00,800.00
             665.00,800.00 665.00,833.00 665.00,833.00
             665.00,833.00 650.00,833.00 650.00,833.00
             650.00,833.00 650.00,748.00 650.00,748.00
             650.00,748.00 664.00,748.00 664.00,748.00
             664.00,748.00 665.00,754.00 665.00,754.00 Z
           M 725.00,754.00
           C 731.22,742.23 751.45,746.14 758.61,755.02
             767.10,765.54 767.39,787.84 760.04,799.00
             751.83,811.44 734.18,811.02 725.00,800.00
             725.00,800.00 725.00,833.00 725.00,833.00
             725.00,833.00 710.00,833.00 710.00,833.00
             710.00,833.00 710.00,748.00 710.00,748.00
             710.00,748.00 724.00,748.00 724.00,748.00
             724.00,748.00 725.00,754.00 725.00,754.00 Z
           M 368.00,748.00
           C 368.00,748.00 385.30,748.99 385.30,748.99
             385.30,748.99 389.72,760.00 389.72,760.00
             389.72,760.00 398.00,784.00 398.00,784.00
             398.00,784.00 405.67,758.00 405.67,758.00
             405.67,758.00 409.70,748.99 409.70,748.99
             409.70,748.99 426.00,748.00 426.00,748.00
             426.00,748.00 422.34,759.00 422.34,759.00
             422.34,759.00 406.00,806.00 406.00,806.00
             406.00,806.00 395.00,806.00 395.00,806.00
             386.43,805.95 388.06,805.35 383.31,792.00
             383.31,792.00 368.00,748.00 368.00,748.00 Z
           M 354.00,771.00
           C 353.11,755.89 333.62,755.88 332.00,771.00
             332.00,771.00 354.00,771.00 354.00,771.00 Z
           M 463.00,771.00
           C 462.11,755.89 442.62,755.88 441.00,771.00
             441.00,771.00 463.00,771.00 463.00,771.00 Z
           M 673.00,760.60
           C 664.21,765.32 662.99,777.11 665.80,786.00
             668.02,793.00 675.27,796.38 681.98,793.35
             689.13,790.12 689.07,782.67 689.00,776.00
             688.87,765.59 684.48,758.16 673.00,760.60 Z
           M 733.00,760.60
           C 724.21,765.32 722.99,777.11 725.80,786.00
             728.02,793.00 735.27,796.38 741.98,793.35
             749.13,790.12 749.07,782.67 749.00,776.00
             748.87,765.59 744.48,758.16 733.00,760.60 Z
           M 629.00,779.00
           C 629.00,779.00 615.00,783.14 615.00,783.14
             611.33,784.65 608.36,787.65 609.33,791.94
             610.61,797.56 619.31,796.51 622.96,794.11
             628.33,790.57 628.87,784.86 629.00,779.00 Z" />
  <path id="Selection"
        fill="none" stroke="black" stroke-width="1"
        d="M 527.00,215.51
           C 530.33,214.99 531.68,215.01 535.00,215.00
             553.21,214.97 563.42,215.43 579.00,226.75
             579.00,226.75 606.34,253.00 606.34,253.00
             606.34,253.00 656.42,303.14 656.42,303.14
             656.42,303.14 729.09,376.04 729.09,376.04
             736.18,383.32 751.68,397.63 756.78,405.00
             766.33,418.80 768.19,430.69 768.00,447.00
             767.73,470.06 755.34,483.66 740.00,499.00
             740.00,499.00 721.00,518.00 721.00,518.00
             721.00,518.00 618.00,621.00 618.00,621.00
             618.00,621.00 578.00,659.96 578.00,659.96
             570.05,665.58 556.80,670.88 547.00,671.00
             547.00,671.00 533.00,671.00 533.00,671.00
             527.18,670.93 526.40,670.37 521.00,668.72
             502.81,663.13 496.07,655.07 483.00,642.00
             483.00,642.00 422.00,581.00 422.00,581.00
             422.00,581.00 355.00,514.00 355.00,514.00
             342.34,501.34 324.60,486.22 317.35,470.00
             313.00,460.28 311.88,449.51 312.00,439.00
             312.35,409.70 335.08,391.92 354.00,373.00
             354.00,373.00 462.00,265.00 462.00,265.00
             462.00,265.00 484.00,243.00 484.00,243.00
             499.61,227.39 504.96,220.96 527.00,215.51 Z
           M 556.00,236.00
           C 551.75,234.87 545.36,233.57 541.00,233.57
             516.01,233.54 503.17,250.83 487.00,267.00
             487.00,267.00 430.00,324.00 430.00,324.00
             430.00,324.00 407.49,347.00 407.49,347.00
             407.49,347.00 375.09,379.25 375.09,379.25
             370.70,383.75 363.60,389.16 362.00,395.00
             371.85,396.75 367.77,397.02 379.00,397.00
             398.06,396.97 406.37,387.63 419.00,375.00
             419.00,375.00 437.00,357.00 437.00,357.00
             437.00,357.00 512.00,282.00 512.00,282.00
             512.00,282.00 541.00,253.00 541.00,253.00
             545.88,248.12 553.10,242.13 556.00,236.00 Z
           M 590.00,264.00
           C 586.31,268.34 586.00,274.48 586.00,280.00
             586.00,295.54 591.25,305.12 602.00,316.00
             602.00,316.00 704.00,418.00 704.00,418.00
             704.00,418.00 731.99,446.00 731.99,446.00
             736.11,450.17 741.47,457.19 747.00,459.00
             748.28,449.90 749.05,452.73 749.00,442.00
             748.91,421.40 737.53,411.53 724.00,398.00
             724.00,398.00 703.00,377.00 703.00,377.00
             703.00,377.00 590.00,264.00 590.00,264.00 Z
           M 506.04,316.51
           C 499.87,319.19 488.26,332.64 482.95,337.95
             482.95,337.95 434.00,387.00 434.00,387.00
             434.00,387.00 421.00,399.71 421.00,399.71
             418.69,401.73 414.75,404.35 413.60,407.17
             412.88,408.94 413.00,412.05 413.00,414.00
             413.00,414.00 413.00,470.00 413.00,470.00
             413.02,481.22 418.28,483.28 426.00,491.00
             426.00,491.00 459.00,524.00 459.00,524.00
             459.00,524.00 492.96,557.99 492.96,557.99
             498.56,563.73 500.70,569.84 509.00,570.00
             509.00,570.00 568.00,570.00 568.00,570.00
             569.90,570.00 572.97,570.12 574.71,569.48
             577.52,568.45 587.80,557.48 590.50,554.72
             590.50,554.72 633.00,512.00 633.00,512.00
             633.00,512.00 654.82,490.32 654.82,490.32
             665.39,480.31 666.98,482.55 667.00,472.00
             667.00,472.00 667.00,416.00 667.00,416.00
             666.98,404.69 663.70,404.50 655.98,396.58
             655.98,396.58 631.58,372.28 631.58,372.28
             631.58,372.28 590.34,330.98 590.34,330.98
             587.12,327.77 579.19,317.81 575.91,316.58
             574.04,315.88 571.03,316.00 569.00,316.00
             569.00,316.00 529.00,316.00 529.00,316.00
             522.99,316.00 511.39,315.55 506.04,316.51 Z
           M 335.00,426.00
           C 332.54,430.03 332.40,432.45 331.85,437.00
             330.14,451.15 333.65,463.73 343.29,474.49
             343.29,474.49 377.58,508.86 377.58,508.86
             377.58,508.86 448.66,580.02 448.66,580.02
             448.66,580.02 476.58,608.01 476.58,608.01
             481.06,612.54 485.73,619.13 492.00,621.00
             495.62,607.34 494.91,592.06 486.90,580.00
             482.99,574.11 466.44,558.63 460.32,552.18
             460.32,552.18 422.91,514.68 422.91,514.68
             422.91,514.68 335.00,426.00 335.00,426.00 Z
           M 719.00,491.00
           C 719.00,491.00 711.00,489.32 711.00,489.32
             703.82,488.16 692.86,489.07 686.00,491.55
             676.95,494.81 670.61,501.39 664.00,508.00
             664.00,508.00 640.00,532.00 640.00,532.00
             640.00,532.00 569.00,603.00 569.00,603.00
             569.00,603.00 539.00,633.00 539.00,633.00
             534.12,637.88 526.90,643.87 524.00,650.00
             533.10,651.28 530.27,652.05 541.00,652.00
             560.82,651.91 569.91,642.09 583.00,629.00
             583.00,629.00 603.00,609.00 603.00,609.00
             603.00,609.00 674.00,538.00 674.00,538.00
             674.00,538.00 704.00,508.00 704.00,508.00
             708.88,503.12 716.10,497.13 719.00,491.00 Z" />
</svg>
