<?xml version="1.0" encoding="UTF-8" standalone="no"?>
<!-- Created with Inkscape (http://www.inkscape.org/) -->
<svg
   xmlns:dc="http://purl.org/dc/elements/1.1/"
   xmlns:cc="http://web.resource.org/cc/"
   xmlns:rdf="http://www.w3.org/1999/02/22-rdf-syntax-ns#"
   xmlns:svg="http://www.w3.org/2000/svg"
   xmlns="http://www.w3.org/2000/svg"
   xmlns:xlink="http://www.w3.org/1999/xlink"
   xmlns:sodipodi="http://inkscape.sourceforge.net/DTD/sodipodi-0.dtd"
   xmlns:inkscape="http://www.inkscape.org/namespaces/inkscape"
   width="763.67999"
   height="530"
   id="svg2"
   sodipodi:version="0.32"
   inkscape:version="0.43+devel"
   sodipodi:docbase="C:\Documents and Settings\Jeremy Cushman\My Documents\My Pictures\Wikipedia Files\PNG to SVG"
   sodipodi:docname="WikiNews-Logo.svg"
   version="1.0"
   inkscape:r_cx="true"
   inkscape:r_cy="true">
  <defs
     id="defs4">
    <linearGradient
       id="linearGradient4973">
      <stop
         style="stop-color:#000000;stop-opacity:1;"
         offset="0"
         id="stop4975" />
      <stop
         id="stop5856"
         offset="0.6388889"
         style="stop-color:#595959;stop-opacity:0.57731956;" />
      <stop
         style="stop-color:#868686;stop-opacity:0;"
         offset="0.75"
         id="stop5858" />
      <stop
         style="stop-color:#b3b3b3;stop-opacity:0;"
         offset="1"
         id="stop4977" />
    </linearGradient>
    <linearGradient
       id="linearGradient2340">
      <stop
         style="stop-color:#000000;stop-opacity:1;"
         offset="0"
         id="stop2342" />
      <stop
         style="stop-color:#000000;stop-opacity:0;"
         offset="1"
         id="stop2344" />
    </linearGradient>
    <linearGradient
       id="linearGradient3174">
      <stop
         style="stop-color:#000000;stop-opacity:0;"
         offset="0"
         id="stop3176" />
      <stop
         id="stop3182"
         offset="0"
         style="stop-color:#000000;stop-opacity:1;" />
      <stop
         style="stop-color:#000000;stop-opacity:0;"
         offset="0.75"
         id="stop3184" />
      <stop
         id="stop3186"
         offset="0.75"
         style="stop-color:#000000;stop-opacity:0;" />
      <stop
         style="stop-color:#000000;stop-opacity:0;"
         offset="1"
         id="stop3178" />
    </linearGradient>
    <linearGradient
       id="linearGradient3126">
      <stop
         id="stop3152"
         offset="0"
         style="stop-color:#000000;stop-opacity:0;" />
      <stop
         style="stop-color:#000000;stop-opacity:1;"
         offset="0.18518518"
         id="stop3156" />
      <stop
         style="stop-color:#000000;stop-opacity:1;"
         offset="1"
         id="stop3130" />
    </linearGradient>
    <linearGradient
       id="linearGradient14123">
      <stop
         style="stop-color:white;stop-opacity:1;"
         offset="0"
         id="stop14125" />
      <stop
         style="stop-color:white;stop-opacity:0;"
         offset="1"
         id="stop14127" />
    </linearGradient>
    <marker
       inkscape:stockid="Arrow1Lstart"
       orient="auto"
       refY="0"
       refX="0"
       id="Arrow1Lstart"
       style="overflow:visible"
       inkscape:r_cx="true"
       inkscape:r_cy="true">
      <path
         id="path8764"
         d="M 0,0 L 5,-5 L -12.5,0 L 5,5 L 0,0 z "
         style="fill-rule:evenodd;stroke:#000000;stroke-width:1pt;marker-start:none"
         transform="matrix(0.8,0,0,0.8,10,0)"
         inkscape:r_cx="true"
         inkscape:r_cy="true" />
    </marker>
    <linearGradient
       id="linearGradient8494">
      <stop
         style="stop-color:white;stop-opacity:0.21717171;"
         offset="0"
         id="stop8496" />
      <stop
         id="stop8502"
         offset="0.5"
         style="stop-color:white;stop-opacity:0.57070708;" />
      <stop
         style="stop-color:white;stop-opacity:0.21717171;"
         offset="1"
         id="stop8498" />
    </linearGradient>
    <linearGradient
       inkscape:collect="always"
       xlink:href="#linearGradient8494"
       id="linearGradient8500"
       x1="403.05087"
       y1="239.24265"
       x2="404.46506"
       y2="0.2405497"
       gradientUnits="userSpaceOnUse"
       gradientTransform="translate(-2,-2)" />
    <linearGradient
       inkscape:collect="always"
       xlink:href="#linearGradient8494"
       id="linearGradient8582"
       gradientUnits="userSpaceOnUse"
       x1="403.05087"
       y1="239.24265"
       x2="404.46506"
       y2="0.2405497" />
    <radialGradient
       inkscape:collect="always"
       xlink:href="#linearGradient14123"
       id="radialGradient14129"
       cx="382.9888"
       cy="120"
       fx="382.9888"
       fy="120"
       r="206.99046"
       gradientTransform="matrix(1,0,0,1.014438,0,-1.732552)"
       gradientUnits="userSpaceOnUse" />
    <radialGradient
       inkscape:collect="always"
       xlink:href="#linearGradient14123"
       id="radialGradient15148"
       gradientUnits="userSpaceOnUse"
       gradientTransform="matrix(1,0,0,1.014438,0,-1.732552)"
       cx="382.9888"
       cy="120"
       fx="382.9888"
       fy="120"
       r="206.99046" />
    <radialGradient
       inkscape:collect="always"
       xlink:href="#linearGradient14123"
       id="radialGradient4060"
       gradientUnits="userSpaceOnUse"
       gradientTransform="matrix(1,0,0,1.014438,0.971948,-3.225457)"
       cx="382.9888"
       cy="120"
       fx="382.9888"
       fy="120"
       r="206.99046" />
    <radialGradient
       inkscape:collect="always"
       xlink:href="#linearGradient14123"
       id="radialGradient4062"
       gradientUnits="userSpaceOnUse"
       gradientTransform="matrix(1,0,0,1.014438,1.113157,-3.420331)"
       cx="382.9888"
       cy="120"
       fx="382.9888"
       fy="120"
       r="206.99046" />
    <radialGradient
       inkscape:collect="always"
       xlink:href="#linearGradient3126"
       id="radialGradient3136"
       cx="578.99127"
       cy="386.57895"
       fx="578.99127"
       fy="386.57895"
       r="161.99255"
       gradientTransform="matrix(1,0,0,0.953652,0,17.9171)"
       gradientUnits="userSpaceOnUse" />
    <radialGradient
       inkscape:collect="always"
       xlink:href="#linearGradient3174"
       id="radialGradient3180"
       cx="485"
       cy="438.5"
       fx="485"
       fy="438.5"
       r="161"
       gradientTransform="matrix(1.076924,0,0,1.210796,-16.30785,-38.56256)"
       gradientUnits="userSpaceOnUse" />
    <radialGradient
       inkscape:collect="always"
       xlink:href="#linearGradient2340"
       id="radialGradient2348"
       cx="559.01147"
       cy="401.22006"
       fx="559.01147"
       fy="401.22006"
       r="161.99255"
       gradientTransform="matrix(-0.897779,0.282676,-0.335509,-0.969095,1204.9,642.3802)"
       gradientUnits="userSpaceOnUse"
       spreadMethod="pad" />
    <radialGradient
       inkscape:collect="always"
       xlink:href="#linearGradient4973"
       id="radialGradient5854"
       cx="430.26044"
       cy="328.66864"
       fx="430.26044"
       fy="328.66864"
       r="233.98923"
       gradientTransform="matrix(-1.023029,0.383883,-0.344435,-1.124182,916.0422,627.9437)"
       gradientUnits="userSpaceOnUse" />
  </defs>
  <sodipodi:namedview
     id="base"
     pagecolor="#ffffff"
     bordercolor="#666666"
     borderopacity="1.0"
     inkscape:pageopacity="0.0"
     inkscape:pageshadow="2"
     inkscape:zoom="1"
     inkscape:cx="362.74195"
     inkscape:cy="216.92636"
     inkscape:document-units="px"
     inkscape:current-layer="layer1"
     inkscape:window-width="924"
     inkscape:window-height="945"
     inkscape:window-x="5"
     inkscape:window-y="0"
     showguides="true"
     inkscape:guide-bbox="true"
     height="530px"
     width="763.68px">
    <sodipodi:guide
       orientation="horizontal"
       position="114"
       id="guide8562" />
    <sodipodi:guide
       orientation="vertical"
       position="383"
       id="guide8564" />
    <sodipodi:guide
       orientation="horizontal"
       position="325"
       id="guide8584" />
    <sodipodi:guide
       orientation="vertical"
       position="589.5"
       id="guide8586" />
    <sodipodi:guide
       orientation="vertical"
       position="235.5"
       id="guide8773" />
    <sodipodi:guide
       orientation="horizontal"
       position="262"
       id="guide8775" />
    <sodipodi:guide
       orientation="horizontal"
       position="-33.5"
       id="guide8777" />
    <sodipodi:guide
       orientation="vertical"
       position="531"
       id="guide8779" />
    <sodipodi:guide
       orientation="vertical"
       position="175.5"
       id="guide10555" />
    <sodipodi:guide
       orientation="horizontal"
       position="-95.5"
       id="guide10557" />
  </sodipodi:namedview>
  <metadata
     id="metadata7">
    <rdf:RDF>
      <cc:Work
         rdf:about="">
        <dc:format>image/svg+xml</dc:format>
        <dc:type
           rdf:resource="http://purl.org/dc/dcmitype/StillImage" />
      </cc:Work>
    </rdf:RDF>
  </metadata>
  <g
     inkscape:groupmode="layer"
     id="layer2"
     inkscape:label="Kreise"
     style="display:inline"
     transform="translate(4.969921e-5,97.07894)"
     inkscape:r_cx="true"
     inkscape:r_cy="true" />
  <g
     inkscape:label="Ebene 1"
     inkscape:groupmode="layer"
     id="layer1"
     transform="translate(459.6624,116.0739)"
     style="display:inline"
     inkscape:r_cx="true"
     inkscape:r_cy="true">
    <g
       id="g8566"
       transform="translate(2,2)"
       inkscape:r_cx="true"
       inkscape:r_cy="true">
      <path
         id="path6685"
         d="M -442.16005,168.07893 C -446.79105,161.77025 -451.92965,150.57065 -454.60626,140.95239 C -463.1515,110.24548 -460.5944,65.50753 -448.98213,42.55486 C -445.69462,36.05682 -441.69927,29.81389 -439.83053,28.25504 C -438.35554,27.02465 -416.71429,26.35362 -416.71429,27.53828 C -416.71429,27.83157 -417.8958,30.40313 -419.33987,33.25286 C -430.24504,54.77319 -435.76655,84.23209 -433.79554,110.37827 C -432.17678,131.8517 -427.16048,151.324 -419.20103,167.03121 C -417.83332,169.73025 -416.71429,172.17851 -416.71429,172.4718 C -416.71429,172.76508 -421.62596,173.00504 -427.62912,173.00504 L -438.54395,173.00504 L -442.16005,168.07893 z M 258.28571,172.25303 C 258.28571,171.83943 260.49133,166.29648 263.18709,159.93537 C 272.37298,138.25971 275.9548,118.26657 274.86682,94.74111 C 273.57092,66.71969 269.5504,51.20821 257.50426,27.75504 C 257.29239,27.34254 262.23907,27.00504 268.49689,27.00504 L 279.87474,27.00504 L 283.46346,31.75504 C 290.70102,41.33463 295.71296,54.64426 298.80848,72.50504 C 300.88253,84.47202 301.17899,110.60821 299.37564,122.50504 C 296.39704,142.1551 289.07553,161.84425 281.92972,169.42102 L 278.54956,173.00504 L 268.41763,173.00504 C 262.84508,173.00504 258.28571,172.66664 258.28571,172.25303 z "
         style="fill:#b0ddff;fill-opacity:1"
         inkscape:r_cx="true"
         inkscape:r_cy="true" />
      <path
         id="path6683"
         d="M -379.37304,197.32228 C -383.3101,196.92153 -383.80078,196.48867 -388.57815,189.202 C -394.84181,179.64836 -398.60983,171.39688 -402.59583,158.50504 C -413.57857,122.98377 -413.1662,74.1804 -401.59033,39.5072 C -398.05468,28.91686 -389.97839,13.05802 -385.42811,7.77057 L -382.21429,4.0361 L -368.90608,3.91211 C -361.58657,3.84392 -355.36881,4.01718 -355.08885,4.29715 C -354.80889,4.57711 -355.67355,6.98842 -357.01032,9.65561 C -363.44811,22.50059 -369.15093,44.12039 -372.26198,67.4757 C -374.04594,80.86836 -374.3444,118.67265 -372.77142,132.00504 C -370.87459,148.08231 -366.87192,165.82301 -361.63235,181.37583 C -358.87695,189.55477 -356.90513,196.52977 -357.25051,196.87583 C -357.99222,197.61901 -373.40261,197.93 -379.37304,197.32228 z M 199.03571,197.31571 C 196.73365,196.71412 196.77549,196.41345 200.32052,188.08276 C 204.77665,177.61101 209.99521,157.59142 212.44588,141.56706 C 215.42123,122.11203 215.69943,80.01564 212.96178,63.50504 C 209.71116,43.9008 203.51492,21.51586 198.64639,11.78828 C 194.66662,3.83651 194.41774,4.00504 210.14082,4.00504 L 223.99593,4.00504 L 228.01466,9.75504 C 237.16593,22.84865 244.54427,41.80257 248.35444,62.00504 C 251.4124,78.21916 252.17357,112.6072 249.84447,129.3223 C 246.42051,153.89489 239.60012,174.22682 229.9151,188.73277 C 224.824,196.35806 224.63189,196.51757 219.75579,197.16743 C 214.13249,197.91689 201.67725,198.00602 199.03571,197.31571 z "
         style="fill:#7dc1f2;fill-opacity:1"
         inkscape:r_cx="true"
         inkscape:r_cy="true" />
      <path
         id="path6681"
         d="M -318.49932,212.59709 C -332.82929,196.27617 -342.98723,169.64494 -347.90454,135.50504 C -349.63894,123.46343 -349.62252,80.71332 -347.87823,67.00504 C -345.97752,52.06737 -342.20013,35.63634 -337.59938,22.29368 C -332.9255,8.73892 -329.50931,1.65492 -321.90792,-10.24496 L -316.3186,-18.99496 L -296.43311,-18.99496 C -285.49609,-18.99496 -276.7002,-18.65746 -276.88669,-18.24496 C -277.07317,-17.83246 -278.41104,-15.24496 -279.85974,-12.49496 C -292.05855,10.66159 -302.61332,45.45222 -305.76443,72.89207 C -307.48795,87.90047 -306.47905,121.36534 -303.86947,135.74753 C -299.64529,159.02823 -293.53905,178.78156 -283.80583,200.65229 L -276.97333,216.00504 L -296.24022,216.00504 L -315.50711,216.00504 L -318.49932,212.59709 z M 118.28571,214.98008 C 118.28571,214.41635 119.92339,210.70385 121.92501,206.73008 C 132.99265,184.75766 142.35592,154.77565 145.78994,130.31243 C 147.94938,114.92905 148.00486,77.20927 145.88672,64.50504 C 141.76465,39.78148 134.94938,17.81057 124.41184,-4.72521 C 121.04247,-11.931016 118.28571,-18.08954 118.28571,-18.410818 C 118.28571,-18.732096 126.80558,-18.99496 137.21876,-18.99496 L 156.15181,-18.99496 L 159.76307,-14.587889 C 187.7148,19.52351 199.08843,101.16623 184.15522,160.50504 C 178.627,182.47206 169.42809,201.73291 159.43962,212.25504 L 155.87981,216.00504 L 137.08276,216.00504 C 124.91285,216.00504 118.28571,215.64368 118.28571,214.98008 z "
         style="fill:#4a9eda;fill-opacity:1;fill-rule:evenodd"
         inkscape:r_cx="true"
         inkscape:r_cy="true" />
      <rect
         transform="translate(-459.6624,-18.99496)"
         y="0.2405497"
         x="1.4142135"
         height="239.00209"
         width="762.26111"
         id="rect7607"
         style="opacity:1;fill:url(#linearGradient8500);fill-opacity:1;fill-rule:evenodd;stroke:none;stroke-width:1.39999998;stroke-linecap:round;stroke-linejoin:round;stroke-miterlimit:4;stroke-dasharray:none;stroke-opacity:1"
         inkscape:r_cx="true"
         inkscape:r_cy="true" />
    </g>
    <path
       transform="translate(-460.6616,-17.45548)"
       sodipodi:open="true"
       sodipodi:end="10.325064"
       sodipodi:start="4.0475263"
       d="M 255.29113,-45.270318 A 207,210 0 1 1 254.37312,-44.535983"
       sodipodi:ry="210"
       sodipodi:rx="207"
       sodipodi:cy="120"
       sodipodi:cx="383"
       id="path12347"
       style="fill:#d8e2ff;fill-opacity:1;fill-rule:evenodd;stroke:none;stroke-width:12;stroke-linecap:round;stroke-linejoin:round;marker-start:none;stroke-miterlimit:4;stroke-dasharray:none;stroke-opacity:1;display:inline"
       sodipodi:type="arc"
       inkscape:r_cx="true"
       inkscape:r_cy="true" />
    <path
       sodipodi:open="true"
       sodipodi:end="10.325064"
       sodipodi:start="4.0475263"
       d="M 255.29113,-45.270318 A 207,210 0 1 1 254.37312,-44.535983"
       sodipodi:ry="210"
       sodipodi:rx="207"
       sodipodi:cy="120"
       sodipodi:cx="383"
       id="path15146"
       style="opacity:0.62753033;fill:url(#radialGradient4060);fill-opacity:1;fill-rule:evenodd;stroke:none;stroke-width:12;stroke-linecap:round;stroke-linejoin:round;marker-start:none;stroke-miterlimit:4;stroke-dasharray:none;stroke-opacity:1;display:inline"
       sodipodi:type="arc"
       transform="matrix(1.028021,0,0,1.031193,-470.5931,-21.74871)"
       inkscape:r_cx="true"
       inkscape:r_cy="true" />
    <path
       transform="translate(-460.6616,-17.45548)"
       sodipodi:type="arc"
       style="fill:none;fill-opacity:1;fill-rule:evenodd;stroke:#b6cde2;stroke-width:12;stroke-linecap:round;stroke-linejoin:round;marker-start:none;stroke-miterlimit:4;stroke-dasharray:none;stroke-opacity:1;display:inline"
       id="path8589"
       sodipodi:cx="383"
       sodipodi:cy="120"
       sodipodi:rx="207"
       sodipodi:ry="210"
       d="M 255.29113,-45.270318 A 207,210 0 1 1 254.37312,-44.535983"
       sodipodi:start="4.0475263"
       sodipodi:end="10.325064"
       sodipodi:open="true"
       inkscape:r_cx="true"
       inkscape:r_cy="true" />
    <path
       sodipodi:open="true"
       sodipodi:end="10.325064"
       sodipodi:start="4.0475263"
       d="M 255.29113,-45.270318 A 207,210 0 1 1 254.37312,-44.535983"
       sodipodi:ry="210"
       sodipodi:rx="207"
       sodipodi:cy="120"
       sodipodi:cx="383"
       id="path8771"
       style="fill:none;fill-opacity:1;fill-rule:evenodd;stroke:#b6cde2;stroke-width:20;stroke-linecap:round;stroke-linejoin:round;marker-start:none;stroke-miterlimit:4;stroke-dasharray:none;stroke-opacity:1;display:inline"
       sodipodi:type="arc"
       transform="matrix(0.6,0,0,0.6,-310.6616,31.54448)"
       inkscape:r_cx="true"
       inkscape:r_cy="true" />
    <path
       style="fill:none;fill-opacity:1;fill-rule:evenodd;stroke:#b6cde2;stroke-width:12;stroke-linecap:butt;stroke-linejoin:miter;stroke-miterlimit:4;stroke-dasharray:none;stroke-opacity:1;display:inline"
       d="M -224.66157,-43.455483 L 70.33843,252.04452"
       id="path8781"
       inkscape:r_cx="true"
       inkscape:r_cy="true" />
    <path
       style="fill:none;fill-opacity:1;fill-rule:evenodd;stroke:#b6cde2;stroke-width:12;stroke-linecap:butt;stroke-linejoin:miter;stroke-miterlimit:4;stroke-dasharray:none;stroke-opacity:1;display:inline"
       d="M 72.33843,-44.955483 L -224.66157,250.54452"
       id="path9668"
       inkscape:r_cx="true"
       inkscape:r_cy="true" />
    <path
       style="fill:none;fill-opacity:1;fill-rule:evenodd;stroke:#b6cde2;stroke-width:12;stroke-linecap:butt;stroke-linejoin:miter;stroke-miterlimit:4;stroke-dasharray:none;stroke-opacity:1;display:inline"
       d="M -78.66157,-107.45548 L -77.94003,314.54452"
       id="path10559"
       inkscape:r_cx="true"
       inkscape:r_cy="true" />
    <path
       style="fill:none;fill-opacity:1;fill-rule:evenodd;stroke:#b6cde2;stroke-width:12;stroke-linecap:butt;stroke-linejoin:miter;stroke-miterlimit:4;stroke-dasharray:none;stroke-opacity:1;display:inline"
       d="M -279.66157,101.54452 L 131.33843,104.54452"
       id="path10561"
       inkscape:r_cx="true"
       inkscape:r_cy="true" />
    <path
       id="path14257"
       d="M -101.95995,264.64854 C -106.08206,264.31481 -109.45995,262.1546 -109.45995,259.85219 C -109.45995,259.13157 -110.85209,256.95642 -112.55359,255.01852 C -114.57128,252.72049 -115.84309,250.013 -116.21039,247.23372 C -116.52014,244.88998 -117.77596,241.37626 -119.0011,239.42546 C -121.01806,236.21385 -121.09538,235.62419 -119.81902,233.18816 C -119.04372,231.70846 -117.32958,230.22678 -116.0098,229.89554 C -113.93451,229.37467 -113.65672,228.79857 -113.9544,225.63283 C -114.39582,220.93851 -115.82722,217.24239 -117.85577,215.55884 C -120.01192,213.76939 -119.87532,211.8346 -117.40566,209.18373 L -115.35138,206.97872 L -117.51645,205.22555 C -118.70724,204.26131 -120.27634,203.47238 -121.00335,203.47238 C -121.73035,203.47238 -122.61239,202.56744 -122.96343,201.46141 C -123.31447,200.35538 -124.8073,198.827 -126.28082,198.06501 C -129.0857,196.61455 -129.58265,196.47238 -131.84774,196.47238 C -132.61102,196.47238 -135.44185,195.00988 -138.13846,193.22238 C -140.83508,191.43488 -143.92307,189.48074 -145.00068,188.87985 C -147.46609,187.50508 -151.36244,179.78534 -151.26304,176.47238 C -151.22179,175.09738 -151.68108,172.75328 -152.2837,171.26326 C -153.25193,168.86923 -153.0776,168.31679 -150.7848,166.51326 C -149.35779,165.39078 -147.81248,164.47238 -147.35077,164.47238 C -146.88907,164.47238 -145.85198,163.19738 -145.04614,161.63905 C -143.40879,158.47276 -143.5443,158.51659 -134.24643,158.14615 C -130.55399,157.99904 -127.21649,157.56225 -126.82976,157.17553 C -126.44303,156.7888 -124.42817,156.47238 -122.3523,156.47238 C -118.57827,156.47238 -116.52807,155.16635 -118.44364,153.98246 C -120.07348,152.97516 -119.63046,150.98189 -117.12997,148.07189 C -115.02476,145.6219 -114.54242,145.47768 -112.12997,146.57687 C -110.66146,147.24597 -109.45995,148.22628 -109.45995,148.75534 C -109.45995,149.2844 -108.75602,149.13306 -107.89566,148.41903 C -106.94911,147.63346 -106.54702,146.26159 -106.87746,144.94504 C -107.60966,142.02772 -106.77532,141.41467 -103.60713,142.54205 C -101.07125,143.44444 -101.04404,143.41839 -102.95995,141.9225 C -104.05995,141.06365 -104.84021,139.7654 -104.69386,139.03751 C -104.54751,138.30961 -105.36091,137.47004 -106.50141,137.17179 C -108.2939,136.70304 -108.4074,136.3611 -107.33856,134.64962 C -106.51435,133.32985 -105.32821,132.81005 -103.78102,133.0906 C -102.18658,133.37973 -101.45995,133.03578 -101.45995,131.99194 C -101.45995,131.14043 -100.58308,130.47238 -99.46539,130.47238 C -97.72003,130.47238 -97.54618,130.94089 -98.0739,134.22238 C -99.14123,140.8594 -99.20136,142.47238 -98.38145,142.47238 C -97.93955,142.47238 -97.31696,142.05004 -96.99794,141.53385 C -96.67891,141.01765 -95.52736,140.76682 -94.43892,140.97643 C -93.23688,141.20792 -92.45995,140.81437 -92.45995,139.97398 C -92.45995,137.93278 -90.37177,137.00234 -89.36346,138.59426 C -88.65951,139.70566 -88.48761,139.65626 -88.47526,138.33901 C -88.46684,137.44066 -89.4184,136.455 -90.58983,136.14867 C -92.06456,135.76302 -92.52596,135.08678 -92.08983,133.95025 C -91.7434,133.04745 -91.45995,131.67061 -91.45995,130.89059 C -91.45995,130.11058 -90.56814,129.47238 -89.47814,129.47238 C -88.38815,129.47238 -85.87296,127.89587 -83.88883,125.96902 C -78.86919,121.09428 -76.28683,120.6594 -71.43313,123.87143 C -68.184,126.0216 -67.45995,126.20532 -67.45995,124.87958 C -67.45995,123.8747 -66.90908,123.46979 -66.01088,123.81446 C -64.99336,124.20492 -64.74616,123.89011 -65.18082,122.75741 C -65.57522,121.7296 -65.4004,121.39115 -64.699,121.82464 C -64.09355,122.19883 -62.40971,121.40355 -60.95713,120.05735 C -58.73909,118.00174 -58.49341,117.27838 -59.4232,115.54104 C -60.44258,113.63632 -60.2911,113.08506 -58.92348,113.72238 C -57.59837,114.33989 -56.91231,111.10914 -57.44082,106.74028 C -57.86398,103.24228 -58.40944,102.06116 -59.48878,102.30571 C -60.29792,102.48905 -61.38322,102.71405 -61.90056,102.80571 C -62.4179,102.89738 -63.0292,102.07238 -63.25901,100.97238 C -63.48882,99.872376 -63.36917,99.268746 -62.99312,99.630986 C -62.61708,99.993216 -60.88078,99.851326 -59.13468,99.315666 C -57.38858,98.780016 -55.50995,98.245986 -54.95995,98.128946 C -52.60234,97.627226 -51.75889,96.359376 -52.21064,93.996246 C -52.56237,92.156286 -52.26356,91.472376 -51.10791,91.472376 C -50.10969,91.472376 -49.73586,90.916946 -50.09832,89.972376 C -50.75451,88.262386 -54.45995,87.908406 -54.45995,89.555706 C -54.45995,91.969816 -56.83228,89.646706 -57.15715,86.914476 C -57.40775,84.806836 -57.23935,84.377856 -56.56343,85.402006 C -56.04448,86.188296 -54.97847,86.925766 -54.19452,87.040826 C -53.0585,87.207556 -52.92025,86.423756 -53.51349,83.179606 C -53.92287,80.940878 -54.0694,78.618188 -53.83911,78.018078 C -53.60882,77.417958 -54.78181,76.122748 -56.44574,75.139838 C -60.14902,72.952268 -64.11004,65.503148 -62.21112,64.297428 C -60.37366,63.130738 -59.74481,63.287668 -59.05511,65.084998 C -58.53361,66.443998 -58.18464,66.488778 -56.83625,65.369718 C -55.10782,63.935248 -48.5582,64.058348 -47.00995,65.554408 C -45.75923,66.762958 -42.45995,66.736338 -42.45995,65.517688 C -42.45995,64.365628 -36.65334,63.167228 -33.34094,63.635658 L -30.95995,63.972378 L -33.72255,66.780438 C -35.86718,68.960348 -37.15237,69.483338 -39.4679,69.118408 C -41.10842,68.859858 -42.70884,69.066068 -43.0244,69.576658 C -43.33996,70.087248 -44.12955,70.186278 -44.77905,69.796728 C -45.42854,69.407178 -45.31639,69.881128 -44.52981,70.849938 C -43.73663,71.826878 -42.29011,72.399718 -41.28202,72.136098 C -39.96338,71.791268 -39.01421,72.609458 -37.82456,75.116458 C -36.83736,77.196808 -34.69681,79.331218 -32.44616,80.479408 C -28.14459,82.673906 -27.20515,82.272748 -28.52379,78.804458 C -29.74379,75.595628 -29.86382,75.869848 -26.70995,74.660748 C -20.18304,72.158518 -19.21252,72.117428 -19.92862,74.373658 C -20.32118,75.610508 -20.15639,76.472378 -19.52734,76.472378 C -17.50337,76.472378 -16.95054,76.660218 -14.20995,78.279128 C -12.69745,79.172588 -11.45995,80.673608 -11.45995,81.614748 C -11.45995,82.555876 -10.10995,83.999366 -8.45995,84.822486 C -6.80995,85.645616 -5.45995,85.933906 -5.45995,85.463116 C -5.45995,83.956966 -1.41613,83.263856 0.08804,84.512206 C 2.05467,86.144366 1.98966,88.858886 0.0022,88.096226 C -0.87287,87.760426 -1.78095,88.145306 -2.10479,88.989236 C -2.41782,89.804966 -3.27069,90.472376 -4.00006,90.472376 C -4.84466,90.472376 -5.2931,91.636086 -5.23506,93.677226 C -5.1457,96.820166 -5.11594,96.839906 -3.69451,94.699126 L -2.24508,92.516166 L -0.48281,94.692476 L 1.27946,96.868786 L 1.94211,94.780976 C 2.93775,91.643986 6.91681,91.364356 11.0073,94.143916 C 15.19031,96.986336 17.3537,100.83369 18.1868,106.91182 C 18.52407,109.37247 19.2334,111.29272 19.76309,111.17905 C 21.03975,110.90509 23.16158,114.18418 22.27885,115.06692 C 21.89909,115.44667 20.9736,115.24716 20.22221,114.62356 C 17.89872,112.69524 16.62043,115.47066 18.47915,118.40808 C 19.23205,119.59792 19.65754,119.61976 20.96383,118.53563 C 21.83075,117.81615 22.54005,117.50759 22.54005,117.84994 C 22.54005,118.19228 23.40533,117.6071 24.46289,116.54954 C 28.06433,112.9481 31.189,115.22421 32.93705,122.72238 C 33.42067,124.79685 33.205,125.47238 32.0591,125.47238 C 31.22362,125.47238 30.54005,125.92238 30.54005,126.47238 C 30.54005,127.02238 29.96506,127.47238 29.26229,127.47238 C 28.55952,127.47238 27.19707,128.39207 26.23462,129.51613 C 24.70154,131.30663 24.66537,131.74056 25.94269,133.01788 C 27.61616,134.69135 32.06057,133.51036 33.98293,130.88139 C 35.04199,129.43304 39.50814,128.20476 44.29005,128.04673 C 45.52755,128.00584 46.54005,127.39576 46.54005,126.691 C 46.54005,125.98623 47.18664,125.16149 47.97691,124.85824 C 48.80396,124.54087 49.15624,123.63577 48.80697,122.72558 C 48.39914,121.6628 48.5925,121.38676 49.39663,121.88374 C 50.05468,122.29044 50.46866,123.33008 50.31657,124.19404 C 50.16448,125.05801 50.5835,125.95523 51.24771,126.18786 C 52.53606,126.63908 55.54005,120.46826 55.54005,117.37049 C 55.54005,114.80321 58.56447,107.47238 59.62363,107.47238 C 60.64368,107.47238 59.97591,111.98559 57.92211,118.97238 C 55.6454,126.71748 54.38672,129.49565 53.42399,128.90065 C 52.93782,128.60018 52.54005,128.96763 52.54005,129.7172 C 52.54005,132.4135 45.1856,138.2081 39.54005,139.95994 C 37.44608,140.60972 33.54005,142.93117 33.54005,143.52591 C 33.54005,143.92878 32.86505,144.51742 32.04005,144.83401 C 29.25214,145.90383 30.45491,142.28883 33.99898,138.94635 C 37.12078,136.00211 37.26697,135.63423 35.49898,135.17189 C 34.42157,134.89014 33.54005,135.14249 33.54005,135.73267 C 33.54005,136.32284 33.24395,136.50962 32.88206,136.14772 C 32.52016,135.78583 31.63758,135.97647 30.92076,136.57138 C 29.98004,137.35211 28.56342,137.29563 25.82875,136.36835 C 19.61597,134.2617 17.54005,134.43687 17.54005,137.06779 C 17.54005,139.5541 15.94659,141.19199 15.32931,139.34017 C 15.04759,138.49501 14.02694,138.52847 11.42867,139.46802 C 6.90219,141.10481 5.43373,144.45518 5.02268,154.08356 C 4.65117,162.78551 5.98802,165.09546 11.48612,165.25178 C 15.36368,165.36203 15.99599,165.84185 15.15427,168.03532 C 14.70254,169.21252 13.82003,169.50848 12.07074,169.06944 C 10.23197,168.60794 9.34627,168.96594 8.52354,170.50324 C 7.59843,172.23181 6.79184,172.45738 3.3641,171.94614 C 1.1295,171.61285 -1.43256,170.97485 -2.32938,170.52835 C -7.35973,168.02392 -11.45995,166.6155 -11.45995,167.39203 C -11.45995,167.88005 -13.82245,168.20122 -16.70995,168.10575 C -21.01368,167.96346 -22.75217,168.45814 -26.3553,170.85032 C -28.79821,172.47221 -32.01099,173.73264 -33.58793,173.6878 C -35.14843,173.64344 -36.68458,174.02681 -37.00159,174.53976 C -37.77378,175.78918 -44.17964,175.73495 -44.95995,174.47238 C -45.75563,173.18494 -47.45995,173.17579 -47.45995,174.45896 C -47.45995,175.00158 -45.81024,176.13483 -43.79393,176.9773 C -40.38221,178.40281 -39.98334,178.37826 -38.04393,176.62347 C -36.49771,175.22444 -34.96936,174.86354 -32.12113,175.2249 C -28.30936,175.7085 -28.28705,175.73751 -28.95574,179.34216 C -29.32613,181.33878 -30.3786,183.83357 -31.29456,184.88613 C -35.86038,190.13286 -40.15436,193.91814 -44.74374,196.74202 C -51.13136,200.67236 -49.31035,201.46614 -41.79711,198.02646 C -37.52539,196.0708 -35.92004,195.72794 -35.35042,196.6496 C -34.93324,197.32461 -34.74162,198.12337 -34.9246,198.42463 C -35.10758,198.72589 -35.76153,200.85258 -36.37784,203.1506 C -37.22422,206.30654 -39.5605,209.41428 -45.92656,215.85241 L -54.35474,224.376 L -52.8341,227.42419 C -51.99775,229.1007 -50.91758,230.47238 -50.43371,230.47238 C -49.48223,230.47238 -47.28852,237.38598 -47.91722,238.40324 C -48.12748,238.74344 -51.23836,240.54433 -54.83029,242.40521 C -60.38193,245.28135 -61.21856,246.05491 -60.41051,247.56476 C -59.8877,248.54163 -59.45995,249.80892 -59.45995,250.38096 C -59.45995,251.68343 -64.98249,254.61651 -65.83317,253.76583 C -66.1779,253.4211 -66.45995,254.08861 -66.45995,255.24918 C -66.45995,256.53329 -67.63431,258.05302 -69.45995,259.13145 C -71.10995,260.10613 -72.45995,261.33157 -72.45995,261.85465 C -72.45995,262.37774 -72.76153,262.50413 -73.13012,262.13554 C -73.49872,261.76694 -74.96122,262.25444 -76.38012,263.21887 C -78.39167,264.58612 -81.05258,264.97238 -88.45995,264.97238 C -93.68495,264.97238 -99.75995,264.82665 -101.95995,264.64854 z M -62.98601,235.33707 C -63.54627,232.42786 -64.45995,231.68522 -64.45995,234.13905 C -64.45995,235.8869 -63.69452,237.47238 -62.8507,237.47238 C -62.69895,237.47238 -62.75984,236.51149 -62.98601,235.33707 z M -75.85578,224.74321 C -76.18807,224.41092 -76.42442,225.00155 -76.381,226.05571 C -76.33302,227.22066 -76.09606,227.45761 -75.77684,226.65988 C -75.48797,225.938 -75.52349,225.0755 -75.85578,224.74321 z M -66.95995,220.47238 C -66.62003,219.92238 -67.26847,219.47238 -68.40093,219.47238 C -69.53339,219.47238 -70.45995,219.92238 -70.45995,220.47238 C -70.45995,221.77074 -67.76238,221.77074 -66.95995,220.47238 z M -59.4307,188.32088 C -67.91562,179.98287 -70.99949,178.47814 -65.5805,185.32017 C -63.8642,187.48718 -62.45995,189.65792 -62.45995,190.14404 C -62.45995,191.07679 -58.31432,194.93776 -57.45995,194.80072 C -57.18495,194.75661 -55.84571,195.59698 -54.48387,196.66821 C -52.89781,197.9158 -51.87238,198.20967 -51.63108,197.48577 C -51.42389,196.8642 -54.93372,192.74 -59.4307,188.32088 z M -71.21556,175.24654 C -69.00896,175.82358 -67.49815,174.03626 -67.47526,170.82168 C -67.46139,168.87309 -67.88599,168.71078 -71.99337,169.09448 C -76.18222,169.4858 -76.65727,169.28871 -78.24337,166.50151 C -79.95395,163.49556 -83.17506,162.16644 -82.12638,164.89927 C -81.82523,165.68405 -82.18434,166.82868 -82.9244,167.44287 C -83.97807,168.31734 -84.61596,167.86602 -85.86495,165.36235 C -86.7422,163.60386 -87.47417,161.67174 -87.49155,161.06874 C -87.5245,159.92546 -91.97952,154.47238 -92.8806,154.47238 C -93.76528,154.47238 -92.14553,157.88128 -90.33392,159.83207 C -88.47685,161.83181 -88.84655,164.47238 -90.98361,164.47238 C -91.70393,164.47238 -92.4826,165.03488 -92.714,165.72238 C -93.04199,166.69689 -93.50114,166.6699 -94.79733,165.59994 C -97.09269,163.70518 -96.89588,162.16871 -94.52064,163.4399 C -91.67985,164.96024 -90.77096,162.76293 -93.27547,160.42962 C -94.391,159.39035 -95.59418,157.62481 -95.94921,156.50621 C -96.9149,153.46361 -105.3473,153.15547 -108.54137,156.04606 C -109.92722,157.30024 -111.31323,157.53843 -114.16996,157.01336 C -117.00685,156.49193 -117.67927,156.60443 -116.84381,157.46071 C -116.22993,158.08988 -114.20493,158.85045 -112.34381,159.15085 C -110.48269,159.45126 -108.50995,159.78355 -107.95995,159.88928 C -107.40995,159.99501 -105.38495,160.91419 -103.45995,161.93191 C -101.53495,162.94962 -99.73495,163.82507 -99.45995,163.87734 C -99.18495,163.92961 -99.0263,165.20988 -99.1074,166.72238 C -99.18849,168.23488 -98.85099,169.47238 -98.3574,169.47238 C -97.8638,169.47238 -96.59401,170.33832 -95.53564,171.39669 C -92.11422,174.81811 -89.82276,175.61447 -88.38481,173.88184 C -87.06069,172.28637 -86.71895,172.32422 -79.95995,174.81495 C -77.75995,175.62566 -75.33354,175.93908 -74.56792,175.51144 C -73.8023,175.08379 -72.29374,174.96459 -71.21556,175.24654 z M -100.42451,160.84482 C -100.40503,160.36498 -99.74597,158.84738 -98.95995,157.47238 C -97.61377,155.11749 -97.52876,155.09587 -97.49539,157.09994 C -97.4759,158.27009 -98.13495,159.78769 -98.95995,160.47238 C -99.78495,161.15707 -100.444,161.32467 -100.42451,160.84482 z M -46.48219,162.21118 C -46.51354,160.46419 -49.4702,157.0323 -52.70995,154.98239 C -55.94761,152.9338 -56.42236,154.50997 -53.45995,157.47238 C -52.35995,158.57238 -51.45995,160.27423 -51.45995,161.25427 C -51.45995,162.43312 -50.61387,163.10619 -48.95995,163.24307 C -47.51817,163.3624 -46.46936,162.92561 -46.48219,162.21118 z M -71.86962,161.48205 C -71.2832,160.89563 -69.6722,160.81817 -67.91962,161.29214 C -64.81168,162.13265 -61.45554,161.7982 -61.46627,160.64906 C -61.46975,160.27688 -62.8489,159.18908 -64.53106,158.23171 C -66.38693,157.17547 -67.30669,156.03342 -66.87022,155.3272 C -66.41894,154.59701 -66.58718,154.43298 -67.32175,154.88697 C -67.9657,155.28495 -68.26282,155.98233 -67.98201,156.43669 C -66.99422,158.03496 -70.62721,158.44798 -72.16316,156.91203 C -73.5693,155.50589 -73.88196,155.62554 -75.43714,158.1649 C -76.63174,160.11551 -76.82131,161.19661 -76.05823,161.70707 C -74.53125,162.72853 -73.03576,162.64819 -71.86962,161.48205 z M -82.45995,140.9967 C -82.45995,140.24999 -81.96837,139.47519 -81.36754,139.27491 C -80.21739,138.89153 -79.45919,131.47238 -80.57017,131.47238 C -81.70617,131.47238 -83.46668,134.13232 -82.7831,134.8159 C -81.70609,135.89291 -84.61161,140.38334 -86.87006,141.13224 C -88.86768,141.79465 -88.84957,141.85465 -86.45995,142.49129 C -83.53119,143.27156 -82.45995,142.87129 -82.45995,140.9967 z M -77.45995,129.41336 C -77.45995,128.8309 -77.90995,128.63246 -78.45995,128.97238 C -79.74133,129.76432 -79.74133,130.47238 -78.45995,130.47238 C -77.90995,130.47238 -77.45995,129.99582 -77.45995,129.41336 z M -68.45995,128.98202 C -68.45995,128.83001 -69.32628,128.47909 -70.38513,128.2022 C -71.69945,127.8585 -72.14914,128.11876 -71.80237,129.02242 C -71.39652,130.08006 -68.45995,130.04457 -68.45995,128.98202 z M -22.27245,75.789268 C -22.99433,75.500398 -23.85683,75.535918 -24.18912,75.868208 C -24.52141,76.200508 -23.93078,76.436848 -22.87662,76.393428 C -21.71167,76.345448 -21.47472,76.108488 -22.27245,75.789268 z M -37.96363,247.46832 C -39.44374,245.83281 -39.57368,245.01741 -38.67019,243.03446 C -37.88097,241.30232 -37.87352,240.50119 -38.64422,240.24429 C -40.40427,239.65761 -38.56267,235.63976 -36.1883,234.88616 C -34.99516,234.50747 -32.56615,232.57196 -30.7905,230.58501 C -27.87885,227.32689 -27.40936,227.12355 -26.00622,228.51287 C -24.68107,229.82496 -24.61585,230.93698 -25.56629,236.01287 C -27.5134,246.41146 -27.83301,247.05818 -31.68935,248.4025 C -35.73886,249.81417 -35.85651,249.79665 -37.96363,247.46832 z M 44.54005,243.47238 C 44.54005,242.92238 44.99005,242.47238 45.54005,242.47238 C 46.09005,242.47238 46.54005,242.92238 46.54005,243.47238 C 46.54005,244.02238 46.09005,244.47238 45.54005,244.47238 C 44.99005,244.47238 44.54005,244.02238 44.54005,243.47238 z M -244.45995,207.47238 C -244.45995,206.191 -243.75189,206.191 -242.95995,207.47238 C -242.62003,208.02238 -242.81847,208.47238 -243.40093,208.47238 C -243.98339,208.47238 -244.45995,208.02238 -244.45995,207.47238 z M -255.79328,175.80571 C -256.15995,175.43905 -256.43143,174.20155 -256.39656,173.05571 C -256.33828,171.14012 -256.25604,171.16523 -255.37508,173.36756 C -254.39577,175.81578 -254.59891,177.00009 -255.79328,175.80571 z M -135.89566,153.76551 C -136.43834,152.34031 -136.32348,152.22545 -135.33586,153.20571 C -134.65244,153.88405 -134.34519,154.69095 -134.65308,154.99884 C -134.96097,155.30673 -135.52013,154.75173 -135.89566,153.76551 z M -202.28274,149.78018 C -205.70555,147.16702 -206.99308,146.68734 -208.467,147.47615 C -209.49081,148.02408 -211.26699,148.47238 -212.41408,148.47238 C -215.41591,148.47238 -222.45165,143.75795 -222.50638,141.70984 C -222.59212,138.50125 -228.90781,128.00873 -230.97814,127.63533 C -235.55747,126.80943 -243.85673,116.00231 -244.96945,109.41612 C -245.3367,107.24239 -246.02754,105.70513 -246.50463,106 C -248.10052,106.98631 -250.58237,101.68639 -251.16411,96.049836 C -251.48072,92.982236 -252.07432,90.472376 -252.48322,90.472376 C -253.767,90.472376 -254.29167,86.660126 -253.4944,83.125136 C -252.8311,80.184118 -252.96315,79.791208 -254.48144,80.188248 C -256.56951,80.734288 -257.6085,79.273528 -258.52278,74.506348 L -259.20055,70.972378 L -259.95941,74.243188 C -260.96162,78.562848 -262.45995,79.370108 -262.45995,75.590408 C -262.45995,73.940408 -262.90995,72.312298 -263.45995,71.972378 C -264.00995,71.632458 -264.45995,70.171048 -264.45995,68.724798 C -264.45995,66.109918 -264.47035,66.106418 -266.32469,68.096818 C -267.35029,69.197668 -268.71612,71.082528 -269.35987,72.285378 C -270.00362,73.488228 -270.89563,74.472378 -271.34212,74.472378 C -272.22757,74.472378 -271.87885,65.966748 -270.89226,63.499858 C -270.55628,62.659748 -270.07786,60.905298 -269.82912,59.601098 C -269.13138,55.942758 -265.85824,50.130128 -263.60066,48.540228 C -262.48219,47.752538 -261.79134,46.745188 -262.06545,46.301678 C -262.33956,45.858158 -261.86545,45.763278 -261.01189,46.090818 C -260.15832,46.418368 -259.45995,46.188208 -259.45995,45.579368 C -259.45995,44.970518 -258.78495,44.472378 -257.95995,44.472378 C -256.99397,44.472378 -256.4545,45.451408 -256.44464,47.222378 C -256.43263,49.378528 -256.21669,49.648458 -255.44464,48.472378 C -254.56936,47.139048 -254.34739,47.139048 -253.44695,48.472378 C -252.88979,49.297378 -252.61834,50.743328 -252.84371,51.685608 C -253.06908,52.627888 -252.59664,53.943968 -251.79383,54.610238 C -250.55652,55.637128 -250.43644,55.414248 -251.00548,53.147008 C -251.79489,50.001718 -250.47529,49.616908 -248.69202,52.472378 C -248.00506,53.572378 -246.62221,54.472378 -245.61902,54.472378 C -244.61583,54.472378 -242.70714,56.125438 -241.37749,58.145848 C -240.04784,60.166268 -238.17505,61.926068 -237.21573,62.056518 C -236.25641,62.186978 -233.21215,63.683908 -230.45071,65.383048 C -222.46728,70.295298 -219.98373,69.529838 -215.59851,60.805428 C -213.95764,57.540918 -212.32154,56.079068 -208.04392,54.055428 C -205.04085,52.634748 -202.12346,51.472378 -201.56083,51.472378 C -200.9982,51.472378 -199.66126,50.531458 -198.58985,49.381438 L -196.64184,47.290488 L -194.55089,49.381438 C -193.40087,50.531458 -192.22774,51.359878 -191.94394,51.222378 C -191.08266,50.805098 -187.47359,56.850578 -187.46654,58.722378 C -187.46292,59.684878 -186.78495,60.528628 -185.95995,60.597378 C -185.13495,60.666128 -183.89745,60.789338 -183.20995,60.871188 C -181.33543,61.094348 -179.38855,58.822028 -180.02755,57.156828 C -180.6912,55.427358 -173.52175,47.560988 -171.82784,48.160058 C -171.20518,48.380278 -168.95518,46.853608 -166.82784,44.767468 C -164.7005,42.681318 -161.60995,40.294778 -159.95995,39.464038 C -158.30995,38.633288 -156.95995,37.475678 -156.95995,36.891558 C -156.95995,35.220588 -154.05254,32.731198 -148.90346,29.993398 C -144.15627,27.469288 -141.38076,26.884898 -140.12136,28.144298 C -139.75181,28.513858 -136.29754,28.950308 -132.44521,29.114188 C -128.59289,29.278078 -124.49318,29.919408 -123.33476,30.539378 C -121.69802,31.415338 -121.32214,31.385798 -121.64846,30.406858 C -121.87941,29.714008 -122.91751,29.022498 -123.95534,28.870178 C -124.99318,28.717858 -126.99378,28.269688 -128.40113,27.874248 C -129.80848,27.478818 -131.40995,27.114128 -131.95995,27.063828 C -132.50995,27.013528 -132.95995,26.522378 -132.95995,25.972378 C -132.95995,25.093668 -131.52236,25.027398 -125.45995,25.626618 C -124.63495,25.708168 -123.73495,26.044318 -123.45995,26.373628 C -122.38308,27.663178 -115.80958,29.678488 -113.08741,29.553658 C -109.12601,29.372008 -104.17937,33.410458 -101.57393,38.953278 C -100.3599,41.536028 -98.42779,43.914308 -97.14845,44.400708 C -95.89957,44.875538 -94.27022,45.996068 -93.52767,46.890778 C -92.75963,47.816208 -91.41098,48.274228 -90.39942,47.953168 C -89.22914,47.581738 -88.42319,48.012838 -88.04189,49.214218 C -87.72323,50.218208 -86.22444,51.749688 -84.71123,52.617518 C -81.37535,54.530658 -75.45995,55.760558 -75.45995,54.540998 C -75.45995,54.056238 -74.59044,53.886998 -73.5277,54.164908 C -71.94954,54.577608 -71.69964,54.271818 -72.16398,52.496158 C -72.56227,50.973118 -72.3174,50.407438 -71.34623,50.607048 C -70.58378,50.763768 -68.90891,50.311118 -67.6243,49.601158 C -64.65068,47.957748 -63.30953,49.158008 -65.95665,51.093628 C -68.04911,52.623668 -68.02043,52.675778 -63.61859,55.341748 C -62.50586,56.015668 -62.53727,56.905658 -63.80285,60.563258 C -64.64193,62.988278 -65.84196,64.848578 -66.46957,64.697258 C -67.18142,64.525628 -67.37509,65.164378 -66.98443,66.395268 C -66.50695,67.899668 -67.06944,68.736198 -69.35231,69.916718 C -70.99909,70.768298 -72.58762,71.074818 -72.88239,70.597878 C -73.98168,68.819188 -79.74525,68.429298 -82.10296,69.974128 C -83.37653,70.808598 -85.5282,71.583188 -86.88444,71.695438 C -88.77148,71.851618 -89.09971,72.201508 -88.2827,73.185948 C -87.02197,74.705038 -86.07084,74.910988 -86.95995,73.472378 C -87.29987,72.922378 -87.11726,72.472378 -86.55415,72.472378 C -85.25333,72.472378 -83.32128,76.000378 -84.1618,76.840898 C -84.50912,77.188208 -85.84328,77.472378 -87.12662,77.472378 C -88.65603,77.472378 -89.45995,78.058088 -89.45995,79.172378 C -89.45995,80.494598 -89.72662,80.605708 -90.65995,79.672378 C -91.31995,79.012378 -92.63695,78.472378 -93.58663,78.472378 C -94.5363,78.472378 -95.54189,77.684878 -95.82127,76.722378 C -96.11466,75.711628 -96.25124,76.028448 -96.14459,77.472378 C -96.01719,79.197428 -95.44204,79.886928 -94.28915,79.696728 C -93.37021,79.545118 -91.49757,80.459788 -90.12772,81.729308 C -88.17551,83.538556 -87.85394,84.425016 -88.64019,85.829966 C -89.19189,86.815796 -89.41812,87.847546 -89.14292,88.122736 C -88.86772,88.397936 -88.34615,87.689186 -87.98387,86.547736 C -86.39519,81.542268 -82.94441,87.325706 -83.76567,93.617336 C -84.06008,95.872756 -83.73874,97.778866 -82.92275,98.617336 C -81.30688,100.27774 -82.14354,105.47238 -84.02684,105.47238 C -84.76039,105.47238 -85.72043,106.03488 -86.16026,106.72238 C -86.60009,107.40988 -89.3052,109.15183 -92.17162,110.59338 C -96.88395,112.96325 -97.58409,113.07373 -99.47902,111.74647 C -100.63167,110.93912 -102.11142,110.19702 -102.76735,110.09735 C -103.42328,109.99768 -104.60249,109.51527 -105.38783,109.02531 C -106.17316,108.53535 -108.29716,108.07401 -110.10783,108.0001 C -114.32441,107.82798 -114.78975,107.29032 -113.38693,104.21147 C -112.09943,101.38571 -109.17353,99.518636 -105.40276,99.116606 C -104.01268,98.968396 -102.41285,98.561296 -101.84758,98.211946 C -101.2823,97.862586 -99.50467,97.338266 -97.89729,97.046796 C -96.2899,96.755316 -94.81876,96.048796 -94.62807,95.476746 C -94.43739,94.904706 -93.59888,93.754166 -92.76472,92.920006 C -91.51657,91.671856 -90.96524,91.630756 -89.65057,92.687856 C -88.58504,93.544646 -88.70356,93.090956 -90.00652,91.325406 C -91.08091,89.869576 -92.26636,88.864416 -92.64085,89.091716 C -93.01535,89.319026 -93.60654,89.044206 -93.95461,88.481016 C -94.36952,87.809686 -95.07014,87.890166 -95.989,88.714706 C -99.20169,91.597616 -100.15717,92.179566 -102.74355,92.828706 C -104.23757,93.203686 -105.45995,93.942766 -105.45995,94.471116 C -105.45995,94.999456 -106.92245,94.614706 -108.70995,93.616106 C -112.55658,91.467156 -112.66096,90.814666 -109.75009,87.114106 C -107.52969,84.291316 -105.45995,84.285876 -105.45995,87.102826 C -105.45995,88.398856 -105.22455,88.379836 -103.81463,86.969916 C -102.63459,85.789876 -101.96698,85.651996 -101.4538,86.482336 C -100.96804,87.268306 -100.51606,87.060986 -100.04626,85.836706 C -99.66565,84.844856 -99.67961,84.358696 -100.07727,84.756366 C -100.47494,85.154026 -101.82514,84.807886 -103.07773,83.987166 C -104.33031,83.166436 -106.05884,82.764956 -106.91889,83.094996 C -108.11205,83.552846 -108.31949,83.253946 -107.79423,81.833718 C -107.41561,80.809978 -106.68479,79.689468 -106.17018,79.343698 C -104.78117,78.410408 -107.65651,73.058208 -109.76505,72.652138 C -110.74948,72.462558 -113.15228,73.525798 -115.1046,75.014908 C -117.05692,76.504018 -119.8041,77.722378 -121.20944,77.722378 C -123.53611,77.722378 -123.59449,77.816488 -121.86228,78.774788 C -120.816,79.353608 -119.48711,80.461858 -118.90919,81.237558 C -118.33127,82.013258 -116.04275,82.720916 -113.8236,82.810146 C -110.3313,82.950566 -109.85332,83.241296 -110.2688,84.972376 C -111.03049,88.145976 -112.50828,89.472376 -115.28239,89.472376 C -117.28716,89.472376 -117.59328,89.739046 -116.65995,90.672376 C -114.92986,92.402466 -115.17058,93.245756 -117.61608,94.021926 C -118.80194,94.398306 -120.78196,95.795806 -122.01612,97.127486 C -123.25027,98.459156 -125.21283,99.732206 -126.37735,99.956466 C -127.54187,100.18074 -129.22724,101.09681 -130.12262,101.99219 C -132.11996,103.98953 -133.37566,102.4823 -132.69234,98.907726 C -132.18292,96.242856 -130.56372,95.773776 -128.6007,97.722376 C -127.59044,98.725216 -127.48273,98.576926 -128.05594,96.972376 C -128.4489,95.872376 -129.26306,94.323496 -129.86518,93.530416 C -130.69486,92.437626 -130.65727,92.270306 -129.70995,92.839436 C -128.84776,93.357416 -128.48444,92.874036 -128.5389,91.281396 C -128.58232,90.011436 -128.84482,89.534876 -129.12223,90.222376 C -129.39964,90.909876 -130.48912,91.472376 -131.54328,91.472376 C -132.79328,91.472376 -133.45995,92.168026 -133.45995,93.472376 C -133.45995,96.251076 -134.91154,95.971416 -136.29943,92.925326 C -137.66911,89.919226 -137.80317,88.142216 -136.60441,88.883096 C -136.13386,89.173916 -135.95352,88.341276 -136.20365,87.032796 C -136.45378,85.724306 -137.51378,84.430056 -138.55919,84.156676 C -139.75465,83.844056 -140.45995,82.777226 -140.45995,81.281608 C -140.45995,79.714378 -141.45543,78.315548 -143.37965,77.178888 C -145.25971,76.068308 -146.80072,73.944078 -147.70737,71.213278 C -149.03392,67.217748 -149.35679,66.954588 -153.28767,66.664878 C -155.8764,66.474088 -157.45995,66.781148 -157.45995,67.473898 C -157.45995,68.087978 -157.00995,68.312298 -156.45995,67.972378 C -155.90995,67.632458 -155.45995,67.815068 -155.45995,68.378178 C -155.45995,69.730598 -158.80045,71.472378 -161.39421,71.472378 C -162.53037,71.472378 -163.45995,70.936368 -163.45995,70.281248 C -163.45995,69.626128 -164.06258,69.914258 -164.79912,70.921548 C -166.06963,72.659068 -166.17306,72.662368 -166.81638,70.985928 C -167.51724,69.159518 -166.24697,66.933378 -163.20995,64.665678 C -162.24745,63.946988 -161.45995,62.539588 -161.45995,61.538118 C -161.45995,59.561068 -158.78579,56.813198 -157.81071,57.788288 C -157.4802,58.118788 -158.07729,60.142568 -159.13756,62.285578 C -160.96184,65.972768 -160.96856,66.156638 -159.26264,65.710528 C -158.27116,65.451248 -157.45995,64.616598 -157.45995,63.855748 C -157.45995,62.549948 -155.14987,62.019308 -151.20995,62.420078 C -150.24745,62.517988 -149.45995,61.942958 -149.45995,61.142228 C -149.45995,60.341498 -148.78495,59.427338 -147.95995,59.110748 C -147.10768,58.783708 -146.45995,57.293058 -146.45995,55.658748 C -146.45995,54.052348 -145.57691,51.983208 -144.45995,50.972378 C -143.35995,49.976888 -142.45995,48.191338 -142.45995,47.004478 C -142.45995,44.489288 -147.19205,39.601718 -150.18536,39.025258 C -153.28004,38.429278 -156.76078,42.127748 -156.13554,45.347638 C -155.50153,48.612628 -156.39718,53.472378 -157.63292,53.472378 C -158.14055,53.472378 -159.58119,52.280388 -160.83435,50.823508 L -163.11281,48.174628 L -165.36794,51.823508 C -167.81233,55.778608 -168.9603,56.165968 -171.81929,54.000378 C -174.17343,52.217188 -177.45995,53.959328 -177.45995,56.990418 C -177.45995,58.110738 -178.18877,60.067898 -179.07955,61.339668 C -180.37282,63.186068 -180.47357,64.147078 -179.57955,66.109228 C -178.01812,69.536198 -178.18342,73.886388 -180.04107,78.254498 C -181.93587,82.709996 -182.3114,84.397566 -182.67918,90.109966 C -182.83361,92.508406 -183.253,94.471126 -183.61117,94.471576 C -185.50973,94.473916 -188.59519,102.26898 -188.8674,107.75082 C -189.08036,112.0396 -189.62953,113.98777 -190.81206,114.64955 C -191.7184,115.15677 -192.45995,116.3594 -192.45995,117.32207 C -192.45995,118.28474 -192.96478,119.57721 -193.58179,120.19422 C -194.94876,121.56119 -195.00482,131.18822 -193.7086,141.97238 C -192.25067,154.10197 -194.24415,155.91728 -202.28274,149.78018 z M -97.96703,82.483828 C -97.61669,81.916968 -98.01809,81.749328 -98.90801,82.090818 C -100.64043,82.755606 -100.9574,83.472376 -99.51897,83.472376 C -99.00143,83.472376 -98.30305,83.027526 -97.96703,82.483828 z M -130.45995,71.913358 C -130.45995,71.670818 -131.16151,71.472378 -132.01897,71.472378 C -132.87643,71.472378 -133.29533,71.929718 -132.94987,72.488688 C -132.37906,73.412268 -130.45995,72.968838 -130.45995,71.913358 z M -124.5389,67.722378 C -124.58389,66.154988 -124.85666,65.617438 -125.17317,66.472378 C -125.4786,67.297378 -126.17317,68.534878 -126.71667,69.222378 C -127.42215,70.114788 -127.24071,70.472378 -126.08239,70.472378 C -124.95998,70.472378 -124.48428,69.624838 -124.5389,67.722378 z M -129.95995,67.472378 C -130.95544,66.372378 -132.20003,65.472378 -132.72572,65.472378 C -133.25141,65.472378 -132.61917,66.357408 -131.32073,67.439108 C -128.26489,69.984878 -127.67307,69.999348 -129.95995,67.472378 z M -88.95995,49.472378 C -89.75189,48.190998 -90.45995,48.190998 -90.45995,49.472378 C -90.45995,50.022378 -89.98339,50.472378 -89.40093,50.472378 C -88.81847,50.472378 -88.62003,50.022378 -88.95995,49.472378 z M -100.93518,120.11415 C -102.14459,119.22981 -102.49171,118.14782 -102.03135,116.69734 C -101.36354,114.59326 -101.34059,114.59174 -99.4088,116.52353 C -96.24092,119.69141 -97.49118,122.63247 -100.93518,120.11415 z M -64.20995,119.75214 C -65.73832,119.2063 -65.89118,111.85693 -64.39342,110.93126 C -62.67638,109.87007 -62.32728,110.99323 -63.45347,113.95533 C -64.21398,115.95563 -64.18245,117.10182 -63.33894,118.11818 C -62.01149,119.71766 -62.37854,120.40622 -64.20995,119.75214 z M 44.41243,119.6339 C 44.01103,117.55332 43.52793,114.7218 43.27587,112.97238 C 43.11738,111.87238 41.99466,108.79505 40.78095,106.13387 C 38.81239,101.8176 38.73728,101.1323 40.08501,99.784556 C 41.16077,98.708796 41.95738,98.573836 42.85147,99.315866 C 43.60218,99.938906 44.67616,100.00629 45.52217,99.483426 C 46.49992,98.879146 47.64843,99.376296 49.23863,101.09215 C 50.50441,102.45795 51.54005,103.3095 51.54005,102.98448 C 51.54005,102.65945 52.16548,102.97377 52.92989,103.68295 C 53.69431,104.39214 54.10443,105.87238 53.84127,106.97238 C 53.57812,108.07238 53.15038,110.09738 52.89075,111.47238 C 52.63112,112.84738 52.22592,114.93111 51.99031,116.10289 C 51.61124,117.98812 50.13319,118.91396 45.79005,119.98667 C 45.10255,120.15648 44.48262,119.99773 44.41243,119.6339 z M 79.24507,113.1478 C 77.31999,111.61188 76.19275,106.45904 75.71505,97.011336 C 75.61528,95.038126 74.69239,92.760576 73.56822,91.713246 C 70.59649,88.944656 66.54005,80.741938 66.54005,77.501248 C 66.54005,73.393958 65.58694,71.472378 63.54969,71.472378 C 61.55467,71.472378 60.57409,68.791488 60.5537,63.281398 C 60.54619,61.251358 60.09005,59.312298 59.54005,58.972378 C 58.99005,58.632458 58.54005,57.653438 58.54005,56.796788 C 58.54005,55.666428 59.23953,55.372938 61.09033,55.726738 C 63.59982,56.206458 63.63581,56.126778 63.34071,50.744908 C 63.12279,46.770608 62.56234,45.019498 61.29043,44.338788 C 60.32772,43.823558 59.54005,43.796378 59.54005,44.278388 C 59.54005,44.760398 58.07755,45.113728 56.29005,45.063578 C 53.12675,44.974808 53.04394,45.079088 53.18584,48.972378 C 53.26602,51.172378 53.63305,54.322378 54.00145,55.972378 C 54.60608,58.680398 54.5325,58.802058 53.24542,57.222378 C 52.4612,56.259878 51.53167,55.472378 51.17981,55.472378 C 50.82794,55.472378 50.54005,58.595818 50.54005,62.413358 C 50.54005,66.230898 50.08271,69.636998 49.52374,69.982458 C 48.96477,70.327918 48.74711,70.998388 49.04005,71.472378 C 49.33299,71.946368 49.16756,72.584558 48.67242,72.890568 C 48.17728,73.196588 47.19785,72.060458 46.49592,70.365848 C 45.4164,67.759638 45.46375,66.871548 46.80315,64.604128 C 48.26487,62.129628 48.25226,61.810068 46.63907,60.447948 C 43.95647,58.182858 40.12712,33.481098 42.70562,35.074708 C 43.5189,35.577338 44.00537,32.743588 43.71028,29.222378 C 43.62962,28.259878 43.98717,27.472378 44.50484,27.472378 C 45.71198,27.472378 47.49785,33.872248 46.93976,36.198178 C 46.46728,38.167278 47.01642,39.107688 50.21796,41.812128 C 52.36858,43.628818 52.41648,43.612018 54.04031,40.471868 C 54.94476,38.722868 55.43479,36.640448 55.12926,35.844268 C 54.82374,35.048088 55.26704,34.130638 56.11438,33.805478 C 56.96172,33.480328 57.40928,32.573988 57.10898,31.791398 C 56.80867,31.008808 56.99344,30.634558 57.51959,30.959738 C 58.11395,31.327068 58.3461,27.391178 58.13261,20.566638 C 57.82348,10.685038 57.99005,9.366478 59.79181,7.432518 C 62.03832,5.021168 63.80721,5.134988 72.26989,8.235388 C 75.31152,9.349718 78.44066,11.369168 79.74856,13.061888 C 80.98543,14.662658 82.5695,16.567018 83.26873,17.293808 C 83.96795,18.020588 84.54005,19.450948 84.54005,20.472378 C 84.54005,21.493808 85.11878,22.924168 85.82612,23.650948 C 88.14347,26.031998 89.73065,33.451128 89.02316,38.595208 C 88.57307,41.867748 88.71226,43.472378 89.44621,43.472378 C 90.04782,43.472378 90.54005,44.195518 90.54005,45.079368 C 90.54005,46.096958 89.98989,46.475238 89.04005,46.110748 C 87.10584,45.368528 87.12915,46.204328 89.09756,48.172748 C 90.00445,49.079638 90.36822,50.407428 89.96838,51.351318 C 88.69758,54.351258 88.80838,63.935068 90.16721,68.549848 C 90.90853,71.067458 91.75638,75.047988 92.05133,77.395478 C 92.34628,79.742978 93.2519,82.948266 94.06382,84.518356 C 94.87575,86.088436 95.58491,89.757906 95.63973,92.672716 C 95.69455,95.587526 96.06021,99.097376 96.45231,100.47238 C 96.8444,101.84738 96.74176,104.67187 96.22423,106.74902 C 95.48724,109.70695 94.90168,110.40454 93.52308,109.96699 C 92.55499,109.65973 90.1846,110.33957 88.25555,111.47774 C 83.76506,114.12719 81.09329,114.62239 79.24507,113.1478 z M -79.45995,111.66322 C -79.45995,110.42373 -78.76554,109.14314 -77.91682,108.81746 C -75.30978,107.81704 -74.95271,109.40959 -77.26551,111.72238 L -79.45995,113.91682 L -79.45995,111.66322 z M -70.10281,106.97238 C -68.18741,105.05698 -67.36332,105.05698 -68.09832,106.97238 C -68.41491,107.79738 -69.33293,108.47238 -70.13837,108.47238 C -71.40848,108.47238 -71.40376,108.27334 -70.10281,106.97238 z M 59.54005,101.58003 C 59.54005,99.714666 59.95588,98.611336 60.52609,98.963746 C 61.57689,99.613176 61.38609,102.95967 60.23249,104.11328 C 59.85165,104.49412 59.54005,103.35416 59.54005,101.58003 z M -268.70995,102.14059 C -269.90937,99.211136 -269.65653,91.875796 -268.39946,93.132866 C -267.81619,93.716136 -267.47869,96.393636 -267.64946,99.082866 C -267.8622,102.43309 -268.19606,103.39571 -268.70995,102.14059 z M 49.70135,97.425346 C 46.64086,95.563166 46.40097,95.062136 46.82254,91.412536 C 47.07548,89.222796 46.89039,87.188896 46.41124,86.892766 C 45.93209,86.596636 45.54005,85.875796 45.54005,85.290916 C 45.54005,84.620326 46.09416,84.687356 47.04005,85.472376 C 47.97069,86.244736 48.54005,88.442126 48.54005,91.261486 C 48.54005,93.760806 48.86419,95.481576 49.26035,95.085406 C 49.65652,94.689236 49.92084,92.701736 49.84773,90.668736 C 49.77462,88.635736 49.93178,87.984876 50.19698,89.222376 C 50.7584,91.842186 51.79521,92.074786 53.54005,89.972376 C 54.22474,89.147376 55.17984,88.472376 55.66249,88.472376 C 57.16503,88.472376 56.62868,90.383746 54.54005,92.472376 C 52.54005,94.472376 52.54005,94.472376 54.54005,94.472376 C 55.65116,94.472376 56.54005,95.139046 56.54005,95.972376 C 56.54005,96.797376 55.90255,97.472376 55.12338,97.472376 C 54.34422,97.472376 53.55672,97.918866 53.37338,98.464586 C 53.19005,99.010296 51.53763,98.542636 49.70135,97.425346 z M 60.19304,96.719916 C 59.90137,96.247996 59.70488,94.379806 59.75638,92.568386 C 59.82748,90.067796 60.06649,89.661696 60.74916,90.881546 C 61.24368,91.765216 61.37238,92.934656 61.03516,93.480296 C 60.69793,94.025936 61.16107,94.472376 62.06437,94.472376 C 62.96766,94.472376 63.52859,95.006756 63.31088,95.659876 C 62.80362,97.181666 60.88216,97.834946 60.19304,96.719916 z M 14.54005,94.472376 C 13.95135,93.372376 13.7401,92.472376 14.07061,92.472376 C 15.40084,92.472376 18.54005,94.604206 18.54005,95.507556 C 18.54005,97.262036 15.62998,96.508926 14.54005,94.472376 z M 24.79005,95.810096 C 23.272,95.197546 23.1459,92.834006 24.58385,91.945306 C 25.15795,91.590496 26.28295,91.844036 27.08385,92.508726 C 28.25398,93.479846 28.54005,93.407776 28.54005,92.141876 C 28.54005,89.186816 30.85716,85.472376 32.70057,85.472376 C 33.71228,85.472376 34.54005,85.922376 34.54005,86.472376 C 34.54005,87.411486 33.08386,87.890546 31.21572,87.566016 C 30.76234,87.487266 30.67065,87.874676 31.01196,88.426936 C 31.35328,88.979196 31.11683,90.394646 30.48653,91.572386 C 29.68948,93.061676 29.6754,93.506756 30.44028,93.034036 C 31.04515,92.660206 31.54005,92.815066 31.54005,93.378176 C 31.54005,95.380936 27.41217,96.868146 24.79005,95.810096 z M 32.16478,91.674196 C 31.84712,91.160206 32.55395,89.892026 33.73553,88.856026 C 34.9171,87.820016 35.57415,87.503786 35.19563,88.153276 C 34.81712,88.802776 34.96477,89.616836 35.52374,89.962296 C 36.7899,90.744826 36.8281,88.476236 35.58194,86.505916 C 34.10749,84.174626 36.2275,82.260238 38.62533,83.757706 C 40.61554,85.000616 41.28912,88.472376 39.54005,88.472376 C 38.99005,88.472376 38.54005,89.147376 38.54005,89.972376 C 38.54005,90.797376 37.90185,91.472376 37.12184,91.472376 C 36.34182,91.472376 35.03734,91.728056 34.22299,92.040546 C 33.40864,92.353046 32.48245,92.188186 32.16478,91.674196 z M 61.06104,86.506336 C 60.15889,85.046636 58.57544,79.472378 59.06294,79.472378 C 59.80716,79.472378 62.79446,86.551296 62.27109,87.074666 C 61.97917,87.366586 61.43464,87.110846 61.06104,86.506336 z M -172.381,85.055706 C -172.42442,84.001546 -172.18807,83.410916 -171.85578,83.743206 C -171.52349,84.075506 -171.48797,84.937996 -171.77684,85.659876 C -172.09606,86.457606 -172.33302,86.220656 -172.381,85.055706 z M -256.45995,84.031396 C -256.45995,83.788856 -256.00995,83.312296 -255.45995,82.972376 C -254.90995,82.632456 -254.45995,82.830896 -254.45995,83.413356 C -254.45995,83.995816 -254.90995,84.472376 -255.45995,84.472376 C -256.00995,84.472376 -256.45995,84.273936 -256.45995,84.031396 z M -85.15526,82.415228 C -84.70986,80.712048 -84.86602,80.564498 -86.06279,81.557728 C -86.85781,82.217538 -87.78653,82.479128 -88.12662,82.139048 C -89.11426,81.151398 -86.44624,78.540408 -85.01184,79.090838 C -83.50154,79.670398 -83.22469,84.472376 -84.70158,84.472376 C -85.24698,84.472376 -85.45113,83.546656 -85.15526,82.415228 z M -0.20448,81.150148 C -1.28108,79.952368 -2.40456,78.297378 -2.70112,77.472378 C -3.58965,75.000568 -10.32094,71.912998 -12.28138,73.078018 C -15.28678,74.864018 -17.46333,73.624368 -17.42399,70.149058 L -17.38802,66.972378 L -15.06523,69.811658 C -13.10815,72.203908 -12.64275,72.391138 -12.10923,71.000808 C -11.64434,69.789328 -10.48784,69.433318 -7.75854,69.661538 C -4.71021,69.916428 -3.54411,70.692388 -1.28027,73.972378 C 0.23816,76.172378 1.30258,78.483948 1.0851,79.109198 C 0.8445,79.800928 1.44342,80.048898 2.61487,79.742558 C 3.88726,79.409818 4.54005,79.750998 4.54005,80.748758 C 4.54005,83.247396 1.88266,83.472206 -0.20448,81.150148 z M 51.54005,80.913358 C 51.54005,80.055898 51.99005,79.632458 52.54005,79.972378 C 53.83396,80.772058 53.83396,82.472378 52.54005,82.472378 C 51.99005,82.472378 51.54005,81.770818 51.54005,80.913358 z M -170.63312,79.857478 C -171.05048,79.051248 -171.04596,77.973678 -170.61226,74.889048 C -170.52849,74.293208 -169.78495,73.805708 -168.95995,73.805708 C -168.13495,73.805708 -167.4759,74.293208 -167.49539,74.889048 C -167.55473,76.703188 -170.14376,80.802788 -170.63312,79.857478 z M 44.54005,79.576898 C 44.54005,78.225958 45.69093,77.593048 47.13782,78.148268 C 49.17436,78.929768 48.85545,80.023008 46.54005,80.197428 C 45.44005,80.280288 44.54005,80.001048 44.54005,79.576898 z M 50.50815,75.888458 C 49.54571,73.357068 49.92594,71.472378 51.39907,71.472378 C 51.80661,71.472378 52.14005,73.047378 52.14005,74.972378 C 52.14005,79.148628 51.81668,79.330158 50.50815,75.888458 z M -168.95995,66.472378 C -168.62003,65.922378 -167.89192,65.472378 -167.34192,65.472378 C -166.79192,65.472378 -166.62003,65.922378 -166.95995,66.472378 C -167.29987,67.022378 -168.02798,67.472378 -168.57798,67.472378 C -169.12798,67.472378 -169.29987,67.022378 -168.95995,66.472378 z M 51.70672,63.472378 C 52.21007,61.962328 53.81816,61.806708 54.29005,63.222378 C 54.51922,63.909878 53.95672,64.472378 53.04005,64.472378 C 52.12338,64.472378 51.52338,64.022378 51.70672,63.472378 z M 39.05629,31.523528 C 38.71609,30.451668 37.60234,29.309538 36.58128,28.985468 C 34.70088,28.388648 32.91126,25.472378 34.42541,25.472378 C 35.92005,25.472378 40.54005,30.347468 40.54005,31.924628 C 40.54005,34.062958 39.79866,33.862548 39.05629,31.523528 z M 32.735,19.972378 C 32.71462,18.322378 32.92206,17.526318 33.19599,18.203348 C 33.46991,18.880378 33.48658,20.230378 33.23304,21.203348 C 32.9795,22.176318 32.75538,21.622378 32.735,19.972378 z M 87.04005,18.472378 C 86.67765,16.822378 85.96689,15.472378 85.46059,15.472378 C 84.9543,15.472378 84.54005,14.834878 84.54005,14.055708 C 84.54005,13.276548 83.97755,12.428938 83.29005,12.172138 C 82.47324,11.867038 82.7005,11.433818 83.94581,10.922048 C 86.67164,9.801848 89.65075,13.758848 89.3577,18.110368 C 89.07683,22.280878 87.91635,22.462138 87.04005,18.472378 z M -65.95995,0.472378 C -66.29987,-0.077622 -66.10143,-0.527622 -65.51897,-0.527622 C -64.93651,-0.527622 -64.45995,-0.077622 -64.45995,0.472378 C -64.45995,1.753758 -65.16801,1.753758 -65.95995,0.472378 z M 31.75024,-11.965652 C 30.28557,-15.180242 30.66433,-16.287722 32.48012,-14.099832 C 33.15392,-13.287962 33.55448,-11.841042 33.37026,-10.884462 C 33.11335,-9.550482 32.73588,-9.802402 31.75024,-11.965652 z M 3.54005,-28.527622 C 2.74691,-29.017812 2.42994,-29.750842 2.83568,-30.156582 C 3.24142,-30.562322 4.09838,-30.369292 4.74005,-29.727622 C 6.25096,-28.216712 5.40764,-27.373392 3.54005,-28.527622 z M -1.45995,-29.527622 C -1.45995,-30.077622 -1.00995,-30.527622 -0.45995,-30.527622 C 0.09005,-30.527622 0.54005,-30.077622 0.54005,-29.527622 C 0.54005,-28.977622 0.09005,-28.527622 -0.45995,-28.527622 C -1.00995,-28.527622 -1.45995,-28.977622 -1.45995,-29.527622 z M 47.54005,-41.004582 C 45.06505,-42.317212 40.93975,-43.907832 38.37272,-44.539302 C 33.97815,-45.620342 29.54514,-48.866042 30.77857,-50.099482 C 31.08635,-50.407252 33.29609,-50.113552 35.68911,-49.446812 C 38.08213,-48.780072 40.97751,-48.176422 42.12328,-48.105372 C 45.00137,-47.926892 48.9327,-45.189302 51.51127,-41.568052 C 54.09434,-37.940452 53.48153,-37.853502 47.54005,-41.004582 z M 25.62182,-43.664842 C 22.00919,-49.661122 20.29484,-51.527622 18.39998,-51.527622 C 17.37702,-51.527622 16.54005,-51.971662 16.54005,-52.514382 C 16.54005,-53.312182 22.22887,-53.374532 27.89704,-52.638852 C 28.36838,-52.577672 28.50054,-51.867032 28.19071,-51.059642 C 27.88089,-50.252262 28.05774,-49.325702 28.58372,-49.000632 C 30.17117,-48.019532 29.69394,-45.531332 28.04005,-46.165992 C 26.26204,-46.848282 26.15266,-46.119992 27.62107,-43.376232 C 29.48947,-39.885102 27.74753,-40.136562 25.62182,-43.664842 z "
       style="fill:#237cd1;fill-opacity:1;display:inline"
       inkscape:r_cx="true"
       inkscape:r_cy="true" />
    <path
       sodipodi:open="true"
       sodipodi:end="10.325064"
       sodipodi:start="4.0475263"
       d="M 255.29113,-45.270318 A 207,210 0 1 1 254.37312,-44.535983"
       sodipodi:ry="210"
       sodipodi:rx="207"
       sodipodi:cy="120"
       sodipodi:cx="383"
       id="path13236"
       style="opacity:0.4493927;fill:url(#radialGradient4062);fill-opacity:1;fill-rule:evenodd;stroke:none;stroke-width:12;stroke-linecap:round;stroke-linejoin:round;marker-start:none;stroke-miterlimit:4;stroke-dasharray:none;stroke-opacity:1;display:inline"
       sodipodi:type="arc"
       transform="matrix(0.89758,0,0,0.912133,-420.6358,-7.46152)"
       inkscape:r_cx="true"
       inkscape:r_cy="true" />
    <path
       sodipodi:type="arc"
       style="opacity:1;fill:url(#radialGradient5854);fill-opacity:1;fill-rule:evenodd;stroke:none;stroke-width:15;stroke-linecap:round;stroke-linejoin:miter;stroke-miterlimit:4;stroke-dasharray:none;stroke-dashoffset:0;stroke-opacity:0.29803922"
       id="path4971"
       sodipodi:cx="410"
       sodipodi:cy="410"
       sodipodi:rx="234"
       sodipodi:ry="236"
       d="M 265.63345,224.26764 A 234,236 0 1 1 264.5957,225.09289"
       transform="matrix(0.771357,0,0,0.697004,-257.4216,-26.34534)"
       inkscape:r_cx="true"
       inkscape:r_cy="true"
       sodipodi:start="4.0475263"
       sodipodi:end="10.325064"
       sodipodi:open="true" />
    <path
       sodipodi:type="arc"
       style="opacity:1;fill:#ffffff;fill-opacity:1;fill-rule:evenodd;stroke:#ff0000;stroke-width:22.09252548;stroke-linecap:round;stroke-linejoin:miter;stroke-miterlimit:4;stroke-dasharray:none;stroke-dashoffset:0;stroke-opacity:1"
       id="path1423"
       sodipodi:cx="579"
       sodipodi:cy="386.57895"
       sodipodi:rx="162"
       sodipodi:ry="154.5"
       d="M 479.05393,264.98722 A 162,154.5 0 1 1 478.33549,265.52748"
       transform="matrix(0.83668,0,0,0.877343,-428.8039,-107.4621)"
       inkscape:r_cx="true"
       inkscape:r_cy="true"
       sodipodi:start="4.0475263"
       sodipodi:end="10.325064"
       sodipodi:open="true" />
    <path
       style="fill:none;fill-opacity:0.75;fill-rule:evenodd;stroke:#e6e6e6;stroke-width:15;stroke-linecap:round;stroke-linejoin:miter;stroke-miterlimit:4;stroke-dasharray:none;stroke-opacity:1"
       d="M 61.3376,232.00505 C 8.3376,136.00505 6.51838,137.05538 6.51838,137.05538"
       id="path6802"
       inkscape:r_cx="true"
       inkscape:r_cy="true" />
    <path
       style="fill:none;fill-opacity:0.75;fill-rule:evenodd;stroke:#cdcdcd;stroke-width:15;stroke-linecap:round;stroke-linejoin:miter;stroke-miterlimit:4;stroke-dasharray:none;stroke-opacity:1;display:inline"
       d="M 60.497385,231.84526 C 61.177815,129.16484 61.177815,129.16484 61.177815,129.16484"
       id="path3304"
       inkscape:r_cx="true"
       inkscape:r_cy="true" />
    <path
       style="fill:none;fill-opacity:0.75;fill-rule:evenodd;stroke:#9b9b9b;stroke-width:15;stroke-linecap:round;stroke-linejoin:miter;stroke-miterlimit:4;stroke-dasharray:none;stroke-opacity:1;display:inline"
       d="M 60.742098,232.60055 C 110.9331,142.40955 110.9331,142.40955 110.9331,142.40955"
       id="path2429"
       inkscape:r_cx="true"
       inkscape:r_cy="true" />
    <path
       style="fill:none;fill-opacity:0.75;fill-rule:evenodd;stroke:#000000;stroke-width:15;stroke-linecap:round;stroke-linejoin:miter;stroke-miterlimit:4;stroke-dasharray:none;stroke-opacity:1"
       d="M 61.926616,233.04103 C 149.49858,174.46907 149.49858,174.46907 149.49858,174.46907"
       id="path1554"
       inkscape:r_cx="true"
       inkscape:r_cy="true" />
    <path
       style="fill:none;fill-opacity:0.75;fill-rule:evenodd;stroke:#000000;stroke-width:15;stroke-linecap:round;stroke-linejoin:miter;stroke-miterlimit:4;stroke-dasharray:none;stroke-opacity:1"
       d="M 62.3376,233.00505 L -10.28195,191.07813"
       id="path7677"
       inkscape:r_cx="true"
       inkscape:r_cy="true" />
  </g>
  <g
     inkscape:groupmode="layer"
     id="layer3"
     inkscape:label="Welt"
     style="display:inline"
     transform="translate(4.969921e-5,97.07894)"
     inkscape:r_cx="true"
     inkscape:r_cy="true" />
  <g
     inkscape:groupmode="layer"
     id="layer4"
     inkscape:label="Shade"
     style="opacity:1;display:inline"
     transform="translate(4.969921e-5,97.07894)"
     inkscape:r_cx="true"
     inkscape:r_cy="true" />
</svg>
