<?xml version="1.0" encoding="UTF-8" standalone="no"?>
<!DOCTYPE svg PUBLIC "-//W3C//DTD SVG 20010904//EN"
              "http://www.w3.org/TR/2001/REC-SVG-20010904/DTD/svg10.dtd">

<svg xmlns="http://www.w3.org/2000/svg"
     width="6.35556in" height="6.35556in"
     viewBox="0 0 572 572">
  <path id="Selection"
        fill="white" stroke="black" stroke-width="1"
        d="M 270.00,2.23
           C 274.97,1.78 279.99,2.00 285.00,2.23
             302.12,2.00 316.49,3.47 331.00,13.79
             342.53,21.99 351.56,33.38 362.00,42.83
             362.00,42.83 429.00,109.00 429.00,109.00
             429.00,109.00 513.00,194.00 513.00,194.00
             513.00,194.00 554.32,236.00 554.32,236.00
             557.97,240.72 562.30,248.45 564.55,254.00
             569.48,266.17 570.15,279.05 570.00,292.00
             569.57,328.19 536.61,354.39 513.00,378.00
             513.00,378.00 425.00,466.00 425.00,466.00
             425.00,466.00 371.00,519.17 371.00,519.17
             358.89,530.12 340.57,551.68 328.00,559.38
             312.14,569.10 296.98,570.21 279.00,570.00
             251.03,569.67 231.39,550.39 213.00,532.00
             213.00,532.00 140.00,459.00 140.00,459.00
             140.00,459.00 57.00,376.00 57.00,376.00
             42.24,361.24 18.06,339.45 9.32,321.00
             3.19,308.06 1.84,294.11 2.00,280.00
             2.42,244.27 31.08,221.92 54.00,199.00
             54.00,199.00 191.00,62.00 191.00,62.00
             191.00,62.00 217.00,36.00 217.00,36.00
             235.78,17.22 243.10,8.27 270.00,2.23 Z
           M 307.00,26.00
           C 300.20,24.63 295.13,23.08 288.00,23.00
             262.18,22.71 247.37,35.63 230.00,53.00
             230.00,53.00 204.82,79.08 204.82,79.08
             204.82,79.08 153.09,130.02 153.09,130.02
             153.09,130.02 143.96,140.01 143.96,140.01
             143.96,140.01 116.00,168.00 116.00,168.00
             116.00,168.00 78.00,206.00 78.00,206.00
             71.69,212.31 63.99,217.70 63.00,227.00
             76.80,228.86 89.28,231.02 103.00,226.48
             113.47,223.02 119.11,217.29 127.00,210.17
             127.00,210.17 163.00,175.00 163.00,175.00
             163.00,175.00 252.00,86.00 252.00,86.00
             252.00,86.00 289.00,49.00 289.00,49.00
             295.62,42.38 304.28,35.23 307.00,26.00 Z
           M 546.00,307.00
           C 547.01,294.61 548.03,300.47 548.00,283.00
             547.97,262.28 539.30,252.53 526.17,238.00
             526.17,238.00 510.00,221.00 510.00,221.00
             510.00,221.00 408.00,119.00 408.00,119.00
             408.00,119.00 367.00,78.00 367.00,78.00
             364.19,75.19 352.88,63.09 350.04,62.34
             347.05,61.54 345.43,64.74 344.48,67.00
             343.25,69.96 342.08,80.77 342.32,84.00
             342.91,91.87 344.02,99.75 347.31,107.00
             354.42,122.64 375.11,140.53 387.72,152.87
             387.72,152.87 493.57,259.20 493.57,259.20
             493.57,259.20 513.02,278.91 513.02,278.91
             513.02,278.91 522.73,288.17 522.73,288.17
             529.74,295.52 535.83,304.03 546.00,307.00 Z
           M 245.00,126.24
           C 236.32,129.11 230.25,136.75 224.00,143.00
             224.00,143.00 190.00,177.00 190.00,177.00
             190.00,177.00 144.00,223.00 144.00,223.00
             144.00,223.00 136.00,230.83 136.00,230.83
             127.47,238.56 126.02,239.21 126.00,251.00
             126.00,251.00 126.00,317.00 126.00,317.00
             126.09,335.48 134.13,338.15 146.00,350.00
             146.00,350.00 185.00,389.00 185.00,389.00
             185.00,389.00 223.96,428.00 223.96,428.00
             234.24,438.75 235.57,445.80 252.00,446.00
             252.00,446.00 317.00,446.00 317.00,446.00
             321.12,445.99 326.14,445.90 330.00,444.30
             337.13,441.36 353.65,423.39 359.28,417.00
             359.28,417.00 375.00,401.00 375.00,401.00
             375.00,401.00 403.00,373.00 403.00,373.00
             403.00,373.00 428.00,348.09 428.00,348.09
             431.86,344.49 441.65,336.97 443.86,332.99
             446.02,329.11 445.99,324.30 446.00,320.00
             446.00,320.00 446.00,255.00 446.00,255.00
             445.97,236.50 439.15,234.15 427.00,222.00
             427.00,222.00 401.00,196.00 401.00,196.00
             401.00,196.00 350.04,145.00 350.04,145.00
             345.13,139.86 336.62,128.46 330.00,126.24
             327.71,125.91 324.41,126.00 322.00,126.24
             322.00,126.24 272.00,126.24 272.00,126.24
             272.00,126.24 245.00,126.24 245.00,126.24 Z
           M 30.00,263.00
           C 25.54,268.64 25.60,272.27 24.72,279.00
             22.40,296.83 27.83,313.77 40.09,327.00
             40.09,327.00 85.00,372.00 85.00,372.00
             85.00,372.00 174.00,461.00 174.00,461.00
             174.00,461.00 205.91,493.00 205.91,493.00
             212.52,500.09 216.76,507.05 227.00,509.00
             229.50,496.55 231.05,487.73 228.33,475.00
             224.68,457.94 215.81,449.81 204.00,438.00
             204.00,438.00 177.00,411.00 177.00,411.00
             177.00,411.00 122.01,356.00 122.01,356.00
             122.01,356.00 111.00,344.00 111.00,344.00
             111.00,344.00 30.00,263.00 30.00,263.00 Z
           M 511.00,345.00
           C 495.06,340.77 476.98,340.22 462.00,348.12
             449.16,354.90 430.01,375.99 419.00,387.00
             419.00,387.00 319.00,487.00 319.00,487.00
             319.00,487.00 282.00,524.00 282.00,524.00
             275.91,530.09 267.77,536.66 265.00,545.00
             280.88,550.24 301.50,549.19 316.00,540.55
             327.51,533.69 340.32,519.68 350.00,510.00
             350.00,510.00 459.00,401.00 459.00,401.00
             459.00,401.00 492.00,368.00 492.00,368.00
             499.58,360.42 506.55,354.95 511.00,345.00 Z" />
</svg>
